{
  "title" : "",
  "description" : "",
  "author" : "",
  "width" : 2560.0,
  "height" : 1440.0,
  "version" : "0.5",
  "editRate" : 30,
  "authoringClientName" :  {
    "name" : "Camtasia",
    "platform" : "Mac",
    "version" : "3.1.5"
  },
  "sourceBin" : [
    {
      "id" : 1,
      "src" : "./recordings/1524427442.902620/Rec 4-22-2018.trec",
      "rect" : [0, 0, 2560, 1440],
      "lastMod" : "20180422T195013",
      "sourceTracks" : [
        {
          "range" : [0, 42931],
          "type" : 0,
          "editRate" : 25,
          "trackRect" : [0, 0, 2560, 1440],
          "sampleRate" : 0,
          "bitDepth" : 0,
          "numChannels" : 0,
          "metaData" : "2b7b6a01-7a1f-11e2-83d0-0017f200be7f;2b7b6af0-7a1f-11e2-83d0-0017f200be7f;2b7b6af1-7a1f-11e2-83d0-0017f200be7f;2b7b6af2-7a1f-11e2-83d0-0017f200be7f;2b7b6af3-7a1f-11e2-83d0-0017f200be7f;2b7b6af5-7a1f-11e2-83d0-0017f200be7f;2b7b6af6-7a1f-11e2-83d0-0017f200be7f;2b7b6af7-7a1f-11e2-83d0-0017f200be7f;2b7b6af8-7a1f-11e2-83d0-0017f200be7f;2b7b6af9-7a1f-11e2-83d0-0017f200be7f;2b7b6afa-7a1f-11e2-83d0-0017f200be7f;2b7b6afb-7a1f-11e2-83d0-0017f200be7f;2b7b6afc-7a1f-11e2-83d0-0017f200be7f;"
        },
        {
          "range" : [0, 75737088],
          "type" : 2,
          "editRate" : 44100,
          "trackRect" : [0, 0, 0, 0],
          "sampleRate" : 44100,
          "bitDepth" : 16,
          "numChannels" : 2,
          "metaData" : ""
        }
      ]
    }
  ],
  "timeline" : {
    "id" : 2,
    "sceneTrack" : {
      "scenes" : [
        {
          "duration" : 925.366666666667,
          "title" : "",
          "type" : "",
          "csml" : {
            "tracks" : [
              {
                "trackIndex" : 0,
                "medias" : [
                  {
                    "id" : 3,
                    "_type" : "StitchedMedia",
                    "minMediaStart" : 0,
                    "attributes" : {
                      "ident" : "Rec 4-22-2018",
                      "gain" : 1.0,
                      "mixToMono" : false
                    },
                    "parameters" : {
                      "cursorOpacity" : 1.0,
                      "cursorScale" : 1.0
                    },
                    "medias" : [
                        {
                          "id" : 4,
                          "_type" : "ScreenVMFile",
                          "src" : 1,
                          "trackNumber" : 0,
                          "attributes" : {
                            "ident" : "Rec 4-22-2018"
                          },
                          "parameters" : {
                            "cursorScale" : {
                              "type" : "double",
                              "defaultValue" : 0.0,
                              "interp" : "linr"
                            },
                            "cursorOpacity" : {
                              "type" : "double",
                              "defaultValue" : 0.0,
                              "interp" : "linr"
                            }
                          },
                          "effects" : [

                          ],
                          "start" : 0,
                          "duration" : 513,
                          "mediaStart" : 0,
                          "mediaDuration" : 513,
                          "scalar" : 1,
                          "animationTracks" : {

                          }
                        },
                        {
                          "id" : 5,
                          "_type" : "ScreenVMFile",
                          "src" : 1,
                          "trackNumber" : 0,
                          "attributes" : {
                            "ident" : "Rec 4-22-2018"
                          },
                          "parameters" : {
                            "cursorScale" : {
                              "type" : "double",
                              "defaultValue" : 0.0,
                              "interp" : "linr"
                            },
                            "cursorOpacity" : {
                              "type" : "double",
                              "defaultValue" : 0.0,
                              "interp" : "linr"
                            }
                          },
                          "effects" : [

                          ],
                          "start" : 513,
                          "duration" : 393,
                          "mediaStart" : 681,
                          "mediaDuration" : 393,
                          "scalar" : 1,
                          "animationTracks" : {

                          }
                        },
                        {
                          "id" : 6,
                          "_type" : "ScreenVMFile",
                          "src" : 1,
                          "trackNumber" : 0,
                          "attributes" : {
                            "ident" : "Rec 4-22-2018"
                          },
                          "parameters" : {
                            "cursorScale" : {
                              "type" : "double",
                              "defaultValue" : 0.0,
                              "interp" : "linr"
                            },
                            "cursorOpacity" : {
                              "type" : "double",
                              "defaultValue" : 0.0,
                              "interp" : "linr"
                            }
                          },
                          "effects" : [

                          ],
                          "start" : 906,
                          "duration" : 574,
                          "mediaStart" : 1694,
                          "mediaDuration" : 574,
                          "scalar" : 1,
                          "animationTracks" : {

                          }
                        },
                        {
                          "id" : 7,
                          "_type" : "ScreenVMFile",
                          "src" : 1,
                          "trackNumber" : 0,
                          "attributes" : {
                            "ident" : "Rec 4-22-2018"
                          },
                          "parameters" : {
                            "cursorScale" : {
                              "type" : "double",
                              "defaultValue" : 0.0,
                              "interp" : "linr"
                            },
                            "cursorOpacity" : {
                              "type" : "double",
                              "defaultValue" : 0.0,
                              "interp" : "linr"
                            }
                          },
                          "effects" : [

                          ],
                          "start" : 1480,
                          "duration" : 82,
                          "mediaStart" : 2279,
                          "mediaDuration" : 82,
                          "scalar" : 1,
                          "animationTracks" : {

                          }
                        },
                        {
                          "id" : 8,
                          "_type" : "ScreenVMFile",
                          "src" : 1,
                          "trackNumber" : 0,
                          "attributes" : {
                            "ident" : "Rec 4-22-2018"
                          },
                          "parameters" : {
                            "cursorScale" : {
                              "type" : "double",
                              "defaultValue" : 0.0,
                              "interp" : "linr"
                            },
                            "cursorOpacity" : {
                              "type" : "double",
                              "defaultValue" : 0.0,
                              "interp" : "linr"
                            }
                          },
                          "effects" : [

                          ],
                          "start" : 1562,
                          "duration" : 50,
                          "mediaStart" : 5278,
                          "mediaDuration" : 50,
                          "scalar" : 1,
                          "animationTracks" : {

                          }
                        },
                        {
                          "id" : 9,
                          "_type" : "ScreenVMFile",
                          "src" : 1,
                          "trackNumber" : 0,
                          "attributes" : {
                            "ident" : "Rec 4-22-2018"
                          },
                          "parameters" : {
                            "cursorScale" : {
                              "type" : "double",
                              "defaultValue" : 0.0,
                              "interp" : "linr"
                            },
                            "cursorOpacity" : {
                              "type" : "double",
                              "defaultValue" : 0.0,
                              "interp" : "linr"
                            }
                          },
                          "effects" : [

                          ],
                          "start" : 1612,
                          "duration" : 171,
                          "mediaStart" : 5340,
                          "mediaDuration" : 171,
                          "scalar" : 1,
                          "animationTracks" : {

                          }
                        },
                        {
                          "id" : 10,
                          "_type" : "ScreenVMFile",
                          "src" : 1,
                          "trackNumber" : 0,
                          "attributes" : {
                            "ident" : "Rec 4-22-2018"
                          },
                          "parameters" : {
                            "cursorScale" : {
                              "type" : "double",
                              "defaultValue" : 0.0,
                              "interp" : "linr"
                            },
                            "cursorOpacity" : {
                              "type" : "double",
                              "defaultValue" : 0.0,
                              "interp" : "linr"
                            }
                          },
                          "effects" : [

                          ],
                          "start" : 1783,
                          "duration" : 343,
                          "mediaStart" : 6632,
                          "mediaDuration" : 343,
                          "scalar" : 1,
                          "animationTracks" : {

                          }
                        },
                        {
                          "id" : 11,
                          "_type" : "ScreenVMFile",
                          "src" : 1,
                          "trackNumber" : 0,
                          "attributes" : {
                            "ident" : "Rec 4-22-2018"
                          },
                          "parameters" : {
                            "cursorScale" : {
                              "type" : "double",
                              "defaultValue" : 0.0,
                              "interp" : "linr"
                            },
                            "cursorOpacity" : {
                              "type" : "double",
                              "defaultValue" : 0.0,
                              "interp" : "linr"
                            }
                          },
                          "effects" : [

                          ],
                          "start" : 2126,
                          "duration" : 70,
                          "mediaStart" : 6986,
                          "mediaDuration" : 70,
                          "scalar" : 1,
                          "animationTracks" : {

                          }
                        },
                        {
                          "id" : 12,
                          "_type" : "ScreenVMFile",
                          "src" : 1,
                          "trackNumber" : 0,
                          "attributes" : {
                            "ident" : "Rec 4-22-2018"
                          },
                          "parameters" : {
                            "cursorScale" : {
                              "type" : "double",
                              "defaultValue" : 0.0,
                              "interp" : "linr"
                            },
                            "cursorOpacity" : {
                              "type" : "double",
                              "defaultValue" : 0.0,
                              "interp" : "linr"
                            }
                          },
                          "effects" : [

                          ],
                          "start" : 2196,
                          "duration" : 17,
                          "mediaStart" : 7077,
                          "mediaDuration" : 17,
                          "scalar" : 1,
                          "animationTracks" : {

                          }
                        },
                        {
                          "id" : 13,
                          "_type" : "ScreenVMFile",
                          "src" : 1,
                          "trackNumber" : 0,
                          "attributes" : {
                            "ident" : "Rec 4-22-2018"
                          },
                          "parameters" : {
                            "cursorScale" : {
                              "type" : "double",
                              "defaultValue" : 0.0,
                              "interp" : "linr"
                            },
                            "cursorOpacity" : {
                              "type" : "double",
                              "defaultValue" : 0.0,
                              "interp" : "linr"
                            }
                          },
                          "effects" : [

                          ],
                          "start" : 2213,
                          "duration" : 67,
                          "mediaStart" : 7193,
                          "mediaDuration" : 67,
                          "scalar" : 1,
                          "animationTracks" : {

                          }
                        },
                        {
                          "id" : 14,
                          "_type" : "ScreenVMFile",
                          "src" : 1,
                          "trackNumber" : 0,
                          "attributes" : {
                            "ident" : "Rec 4-22-2018"
                          },
                          "parameters" : {
                            "cursorScale" : {
                              "type" : "double",
                              "defaultValue" : 0.0,
                              "interp" : "linr"
                            },
                            "cursorOpacity" : {
                              "type" : "double",
                              "defaultValue" : 0.0,
                              "interp" : "linr"
                            }
                          },
                          "effects" : [

                          ],
                          "start" : 2280,
                          "duration" : 457,
                          "mediaStart" : 7329,
                          "mediaDuration" : 457,
                          "scalar" : 1,
                          "animationTracks" : {

                          }
                        },
                        {
                          "id" : 15,
                          "_type" : "ScreenVMFile",
                          "src" : 1,
                          "trackNumber" : 0,
                          "attributes" : {
                            "ident" : "Rec 4-22-2018"
                          },
                          "parameters" : {
                            "cursorScale" : {
                              "type" : "double",
                              "defaultValue" : 0.0,
                              "interp" : "linr"
                            },
                            "cursorOpacity" : {
                              "type" : "double",
                              "defaultValue" : 0.0,
                              "interp" : "linr"
                            }
                          },
                          "effects" : [

                          ],
                          "start" : 2737,
                          "duration" : 131,
                          "mediaStart" : 7958,
                          "mediaDuration" : 131,
                          "scalar" : 1,
                          "animationTracks" : {

                          }
                        },
                        {
                          "id" : 16,
                          "_type" : "ScreenVMFile",
                          "src" : 1,
                          "trackNumber" : 0,
                          "attributes" : {
                            "ident" : "Rec 4-22-2018"
                          },
                          "parameters" : {
                            "cursorScale" : {
                              "type" : "double",
                              "defaultValue" : 0.0,
                              "interp" : "linr"
                            },
                            "cursorOpacity" : {
                              "type" : "double",
                              "defaultValue" : 0.0,
                              "interp" : "linr"
                            }
                          },
                          "effects" : [

                          ],
                          "start" : 2868,
                          "duration" : 213,
                          "mediaStart" : 8103,
                          "mediaDuration" : 213,
                          "scalar" : 1,
                          "animationTracks" : {

                          }
                        },
                        {
                          "id" : 17,
                          "_type" : "ScreenVMFile",
                          "src" : 1,
                          "trackNumber" : 0,
                          "attributes" : {
                            "ident" : "Rec 4-22-2018"
                          },
                          "parameters" : {
                            "cursorScale" : {
                              "type" : "double",
                              "defaultValue" : 0.0,
                              "interp" : "linr"
                            },
                            "cursorOpacity" : {
                              "type" : "double",
                              "defaultValue" : 0.0,
                              "interp" : "linr"
                            }
                          },
                          "effects" : [

                          ],
                          "start" : 3081,
                          "duration" : 26,
                          "mediaStart" : 8863,
                          "mediaDuration" : 26,
                          "scalar" : 1,
                          "animationTracks" : {

                          }
                        },
                        {
                          "id" : 18,
                          "_type" : "ScreenVMFile",
                          "src" : 1,
                          "trackNumber" : 0,
                          "attributes" : {
                            "ident" : "Rec 4-22-2018"
                          },
                          "parameters" : {
                            "cursorScale" : {
                              "type" : "double",
                              "defaultValue" : 0.0,
                              "interp" : "linr"
                            },
                            "cursorOpacity" : {
                              "type" : "double",
                              "defaultValue" : 0.0,
                              "interp" : "linr"
                            }
                          },
                          "effects" : [

                          ],
                          "start" : 3107,
                          "duration" : 282,
                          "mediaStart" : 8915,
                          "mediaDuration" : 282,
                          "scalar" : 1,
                          "animationTracks" : {

                          }
                        },
                        {
                          "id" : 19,
                          "_type" : "ScreenVMFile",
                          "src" : 1,
                          "trackNumber" : 0,
                          "attributes" : {
                            "ident" : "Rec 4-22-2018"
                          },
                          "parameters" : {
                            "cursorScale" : {
                              "type" : "double",
                              "defaultValue" : 0.0,
                              "interp" : "linr"
                            },
                            "cursorOpacity" : {
                              "type" : "double",
                              "defaultValue" : 0.0,
                              "interp" : "linr"
                            }
                          },
                          "effects" : [

                          ],
                          "start" : 3389,
                          "duration" : 150,
                          "mediaStart" : 9217,
                          "mediaDuration" : 150,
                          "scalar" : 1,
                          "animationTracks" : {

                          }
                        },
                        {
                          "id" : 20,
                          "_type" : "ScreenVMFile",
                          "src" : 1,
                          "trackNumber" : 0,
                          "attributes" : {
                            "ident" : "Rec 4-22-2018"
                          },
                          "parameters" : {
                            "cursorScale" : {
                              "type" : "double",
                              "defaultValue" : 0.0,
                              "interp" : "linr"
                            },
                            "cursorOpacity" : {
                              "type" : "double",
                              "defaultValue" : 0.0,
                              "interp" : "linr"
                            }
                          },
                          "effects" : [

                          ],
                          "start" : 3539,
                          "duration" : 21,
                          "mediaStart" : 9388,
                          "mediaDuration" : 21,
                          "scalar" : 1,
                          "animationTracks" : {

                          }
                        },
                        {
                          "id" : 21,
                          "_type" : "ScreenVMFile",
                          "src" : 1,
                          "trackNumber" : 0,
                          "attributes" : {
                            "ident" : "Rec 4-22-2018"
                          },
                          "parameters" : {
                            "cursorScale" : {
                              "type" : "double",
                              "defaultValue" : 0.0,
                              "interp" : "linr"
                            },
                            "cursorOpacity" : {
                              "type" : "double",
                              "defaultValue" : 0.0,
                              "interp" : "linr"
                            }
                          },
                          "effects" : [

                          ],
                          "start" : 3560,
                          "duration" : 27,
                          "mediaStart" : 9500,
                          "mediaDuration" : 27,
                          "scalar" : 1,
                          "animationTracks" : {

                          }
                        },
                        {
                          "id" : 22,
                          "_type" : "ScreenVMFile",
                          "src" : 1,
                          "trackNumber" : 0,
                          "attributes" : {
                            "ident" : "Rec 4-22-2018"
                          },
                          "parameters" : {
                            "cursorScale" : {
                              "type" : "double",
                              "defaultValue" : 0.0,
                              "interp" : "linr"
                            },
                            "cursorOpacity" : {
                              "type" : "double",
                              "defaultValue" : 0.0,
                              "interp" : "linr"
                            }
                          },
                          "effects" : [

                          ],
                          "start" : 3587,
                          "duration" : 117,
                          "mediaStart" : 9530,
                          "mediaDuration" : 117,
                          "scalar" : 1,
                          "animationTracks" : {

                          }
                        },
                        {
                          "id" : 23,
                          "_type" : "ScreenVMFile",
                          "src" : 1,
                          "trackNumber" : 0,
                          "attributes" : {
                            "ident" : "Rec 4-22-2018"
                          },
                          "parameters" : {
                            "cursorScale" : {
                              "type" : "double",
                              "defaultValue" : 0.0,
                              "interp" : "linr"
                            },
                            "cursorOpacity" : {
                              "type" : "double",
                              "defaultValue" : 0.0,
                              "interp" : "linr"
                            }
                          },
                          "effects" : [

                          ],
                          "start" : 3704,
                          "duration" : 53,
                          "mediaStart" : 9843,
                          "mediaDuration" : 53,
                          "scalar" : 1,
                          "animationTracks" : {

                          }
                        },
                        {
                          "id" : 24,
                          "_type" : "ScreenVMFile",
                          "src" : 1,
                          "trackNumber" : 0,
                          "attributes" : {
                            "ident" : "Rec 4-22-2018"
                          },
                          "parameters" : {
                            "cursorScale" : {
                              "type" : "double",
                              "defaultValue" : 0.0,
                              "interp" : "linr"
                            },
                            "cursorOpacity" : {
                              "type" : "double",
                              "defaultValue" : 0.0,
                              "interp" : "linr"
                            }
                          },
                          "effects" : [

                          ],
                          "start" : 3757,
                          "duration" : 35,
                          "mediaStart" : 9923,
                          "mediaDuration" : 35,
                          "scalar" : 1,
                          "animationTracks" : {

                          }
                        },
                        {
                          "id" : 25,
                          "_type" : "ScreenVMFile",
                          "src" : 1,
                          "trackNumber" : 0,
                          "attributes" : {
                            "ident" : "Rec 4-22-2018"
                          },
                          "parameters" : {
                            "cursorScale" : {
                              "type" : "double",
                              "defaultValue" : 0.0,
                              "interp" : "linr"
                            },
                            "cursorOpacity" : {
                              "type" : "double",
                              "defaultValue" : 0.0,
                              "interp" : "linr"
                            }
                          },
                          "effects" : [

                          ],
                          "start" : 3792,
                          "duration" : 1,
                          "mediaStart" : 9982,
                          "mediaDuration" : 1,
                          "scalar" : 1,
                          "animationTracks" : {

                          }
                        },
                        {
                          "id" : 26,
                          "_type" : "ScreenVMFile",
                          "src" : 1,
                          "trackNumber" : 0,
                          "attributes" : {
                            "ident" : "Rec 4-22-2018"
                          },
                          "parameters" : {
                            "cursorScale" : {
                              "type" : "double",
                              "defaultValue" : 0.0,
                              "interp" : "linr"
                            },
                            "cursorOpacity" : {
                              "type" : "double",
                              "defaultValue" : 0.0,
                              "interp" : "linr"
                            }
                          },
                          "effects" : [

                          ],
                          "start" : 3793,
                          "duration" : 2,
                          "mediaStart" : 9984,
                          "mediaDuration" : 2,
                          "scalar" : 1,
                          "animationTracks" : {

                          }
                        },
                        {
                          "id" : 27,
                          "_type" : "ScreenVMFile",
                          "src" : 1,
                          "trackNumber" : 0,
                          "attributes" : {
                            "ident" : "Rec 4-22-2018"
                          },
                          "parameters" : {
                            "cursorScale" : {
                              "type" : "double",
                              "defaultValue" : 0.0,
                              "interp" : "linr"
                            },
                            "cursorOpacity" : {
                              "type" : "double",
                              "defaultValue" : 0.0,
                              "interp" : "linr"
                            }
                          },
                          "effects" : [

                          ],
                          "start" : 3795,
                          "duration" : 2,
                          "mediaStart" : 9987,
                          "mediaDuration" : 2,
                          "scalar" : 1,
                          "animationTracks" : {

                          }
                        },
                        {
                          "id" : 28,
                          "_type" : "ScreenVMFile",
                          "src" : 1,
                          "trackNumber" : 0,
                          "attributes" : {
                            "ident" : "Rec 4-22-2018"
                          },
                          "parameters" : {
                            "cursorScale" : {
                              "type" : "double",
                              "defaultValue" : 0.0,
                              "interp" : "linr"
                            },
                            "cursorOpacity" : {
                              "type" : "double",
                              "defaultValue" : 0.0,
                              "interp" : "linr"
                            }
                          },
                          "effects" : [

                          ],
                          "start" : 3797,
                          "duration" : 2,
                          "mediaStart" : 9990,
                          "mediaDuration" : 2,
                          "scalar" : 1,
                          "animationTracks" : {

                          }
                        },
                        {
                          "id" : 29,
                          "_type" : "ScreenVMFile",
                          "src" : 1,
                          "trackNumber" : 0,
                          "attributes" : {
                            "ident" : "Rec 4-22-2018"
                          },
                          "parameters" : {
                            "cursorScale" : {
                              "type" : "double",
                              "defaultValue" : 0.0,
                              "interp" : "linr"
                            },
                            "cursorOpacity" : {
                              "type" : "double",
                              "defaultValue" : 0.0,
                              "interp" : "linr"
                            }
                          },
                          "effects" : [

                          ],
                          "start" : 3799,
                          "duration" : 257,
                          "mediaStart" : 10005,
                          "mediaDuration" : 257,
                          "scalar" : 1,
                          "animationTracks" : {

                          }
                        },
                        {
                          "id" : 30,
                          "_type" : "ScreenVMFile",
                          "src" : 1,
                          "trackNumber" : 0,
                          "attributes" : {
                            "ident" : "Rec 4-22-2018"
                          },
                          "parameters" : {
                            "cursorScale" : {
                              "type" : "double",
                              "defaultValue" : 0.0,
                              "interp" : "linr"
                            },
                            "cursorOpacity" : {
                              "type" : "double",
                              "defaultValue" : 0.0,
                              "interp" : "linr"
                            }
                          },
                          "effects" : [

                          ],
                          "start" : 4056,
                          "duration" : 1422,
                          "mediaStart" : 15039,
                          "mediaDuration" : 1422,
                          "scalar" : 1,
                          "animationTracks" : {

                          }
                        },
                        {
                          "id" : 31,
                          "_type" : "ScreenVMFile",
                          "src" : 1,
                          "trackNumber" : 0,
                          "attributes" : {
                            "ident" : "Rec 4-22-2018"
                          },
                          "parameters" : {
                            "cursorScale" : {
                              "type" : "double",
                              "defaultValue" : 0.0,
                              "interp" : "linr"
                            },
                            "cursorOpacity" : {
                              "type" : "double",
                              "defaultValue" : 0.0,
                              "interp" : "linr"
                            }
                          },
                          "effects" : [

                          ],
                          "start" : 5478,
                          "duration" : 439,
                          "mediaStart" : 17196,
                          "mediaDuration" : 439,
                          "scalar" : 1,
                          "animationTracks" : {

                          }
                        },
                        {
                          "id" : 32,
                          "_type" : "ScreenVMFile",
                          "src" : 1,
                          "trackNumber" : 0,
                          "attributes" : {
                            "ident" : "Rec 4-22-2018"
                          },
                          "parameters" : {
                            "cursorScale" : {
                              "type" : "double",
                              "defaultValue" : 0.0,
                              "interp" : "linr"
                            },
                            "cursorOpacity" : {
                              "type" : "double",
                              "defaultValue" : 0.0,
                              "interp" : "linr"
                            }
                          },
                          "effects" : [

                          ],
                          "start" : 5917,
                          "duration" : 562,
                          "mediaStart" : 18253,
                          "mediaDuration" : 562,
                          "scalar" : 1,
                          "animationTracks" : {

                          }
                        },
                        {
                          "id" : 33,
                          "_type" : "ScreenVMFile",
                          "src" : 1,
                          "trackNumber" : 0,
                          "attributes" : {
                            "ident" : "Rec 4-22-2018"
                          },
                          "parameters" : {
                            "cursorScale" : {
                              "type" : "double",
                              "defaultValue" : 0.0,
                              "interp" : "linr"
                            },
                            "cursorOpacity" : {
                              "type" : "double",
                              "defaultValue" : 0.0,
                              "interp" : "linr"
                            }
                          },
                          "effects" : [

                          ],
                          "start" : 6479,
                          "duration" : 156,
                          "mediaStart" : 18935,
                          "mediaDuration" : 156,
                          "scalar" : 1,
                          "animationTracks" : {

                          }
                        },
                        {
                          "id" : 34,
                          "_type" : "ScreenVMFile",
                          "src" : 1,
                          "trackNumber" : 0,
                          "attributes" : {
                            "ident" : "Rec 4-22-2018"
                          },
                          "parameters" : {
                            "cursorScale" : {
                              "type" : "double",
                              "defaultValue" : 0.0,
                              "interp" : "linr"
                            },
                            "cursorOpacity" : {
                              "type" : "double",
                              "defaultValue" : 0.0,
                              "interp" : "linr"
                            }
                          },
                          "effects" : [

                          ],
                          "start" : 6635,
                          "duration" : 717,
                          "mediaStart" : 19457,
                          "mediaDuration" : 717,
                          "scalar" : 1,
                          "animationTracks" : {

                          }
                        },
                        {
                          "id" : 35,
                          "_type" : "ScreenVMFile",
                          "src" : 1,
                          "trackNumber" : 0,
                          "attributes" : {
                            "ident" : "Rec 4-22-2018"
                          },
                          "parameters" : {
                            "cursorScale" : {
                              "type" : "double",
                              "defaultValue" : 0.0,
                              "interp" : "linr"
                            },
                            "cursorOpacity" : {
                              "type" : "double",
                              "defaultValue" : 0.0,
                              "interp" : "linr"
                            }
                          },
                          "effects" : [

                          ],
                          "start" : 7352,
                          "duration" : 75,
                          "mediaStart" : 20182,
                          "mediaDuration" : 75,
                          "scalar" : 1,
                          "animationTracks" : {

                          }
                        },
                        {
                          "id" : 36,
                          "_type" : "ScreenVMFile",
                          "src" : 1,
                          "trackNumber" : 0,
                          "attributes" : {
                            "ident" : "Rec 4-22-2018"
                          },
                          "parameters" : {
                            "cursorScale" : {
                              "type" : "double",
                              "defaultValue" : 0.0,
                              "interp" : "linr"
                            },
                            "cursorOpacity" : {
                              "type" : "double",
                              "defaultValue" : 0.0,
                              "interp" : "linr"
                            }
                          },
                          "effects" : [

                          ],
                          "start" : 7427,
                          "duration" : 900,
                          "mediaStart" : 20333,
                          "mediaDuration" : 900,
                          "scalar" : 1,
                          "animationTracks" : {

                          }
                        },
                        {
                          "id" : 37,
                          "_type" : "ScreenVMFile",
                          "src" : 1,
                          "trackNumber" : 0,
                          "attributes" : {
                            "ident" : "Rec 4-22-2018"
                          },
                          "parameters" : {
                            "cursorScale" : {
                              "type" : "double",
                              "defaultValue" : 0.0,
                              "interp" : "linr"
                            },
                            "cursorOpacity" : {
                              "type" : "double",
                              "defaultValue" : 0.0,
                              "interp" : "linr"
                            }
                          },
                          "effects" : [

                          ],
                          "start" : 8327,
                          "duration" : 144,
                          "mediaStart" : 21289,
                          "mediaDuration" : 144,
                          "scalar" : 1,
                          "animationTracks" : {

                          }
                        },
                        {
                          "id" : 38,
                          "_type" : "ScreenVMFile",
                          "src" : 1,
                          "trackNumber" : 0,
                          "attributes" : {
                            "ident" : "Rec 4-22-2018"
                          },
                          "parameters" : {
                            "cursorScale" : {
                              "type" : "double",
                              "defaultValue" : 0.0,
                              "interp" : "linr"
                            },
                            "cursorOpacity" : {
                              "type" : "double",
                              "defaultValue" : 0.0,
                              "interp" : "linr"
                            }
                          },
                          "effects" : [

                          ],
                          "start" : 8471,
                          "duration" : 155,
                          "mediaStart" : 21552,
                          "mediaDuration" : 155,
                          "scalar" : 1,
                          "animationTracks" : {

                          }
                        },
                        {
                          "id" : 39,
                          "_type" : "ScreenVMFile",
                          "src" : 1,
                          "trackNumber" : 0,
                          "attributes" : {
                            "ident" : "Rec 4-22-2018"
                          },
                          "parameters" : {
                            "cursorScale" : {
                              "type" : "double",
                              "defaultValue" : 0.0,
                              "interp" : "linr"
                            },
                            "cursorOpacity" : {
                              "type" : "double",
                              "defaultValue" : 0.0,
                              "interp" : "linr"
                            }
                          },
                          "effects" : [

                          ],
                          "start" : 8626,
                          "duration" : 43,
                          "mediaStart" : 21722,
                          "mediaDuration" : 43,
                          "scalar" : 1,
                          "animationTracks" : {

                          }
                        },
                        {
                          "id" : 40,
                          "_type" : "ScreenVMFile",
                          "src" : 1,
                          "trackNumber" : 0,
                          "attributes" : {
                            "ident" : "Rec 4-22-2018"
                          },
                          "parameters" : {
                            "cursorScale" : {
                              "type" : "double",
                              "defaultValue" : 0.0,
                              "interp" : "linr"
                            },
                            "cursorOpacity" : {
                              "type" : "double",
                              "defaultValue" : 0.0,
                              "interp" : "linr"
                            }
                          },
                          "effects" : [

                          ],
                          "start" : 8669,
                          "duration" : 185,
                          "mediaStart" : 21775,
                          "mediaDuration" : 185,
                          "scalar" : 1,
                          "animationTracks" : {

                          }
                        },
                        {
                          "id" : 41,
                          "_type" : "ScreenVMFile",
                          "src" : 1,
                          "trackNumber" : 0,
                          "attributes" : {
                            "ident" : "Rec 4-22-2018"
                          },
                          "parameters" : {
                            "cursorScale" : {
                              "type" : "double",
                              "defaultValue" : 0.0,
                              "interp" : "linr"
                            },
                            "cursorOpacity" : {
                              "type" : "double",
                              "defaultValue" : 0.0,
                              "interp" : "linr"
                            }
                          },
                          "effects" : [

                          ],
                          "start" : 8854,
                          "duration" : 1386,
                          "mediaStart" : 22037,
                          "mediaDuration" : 1386,
                          "scalar" : 1,
                          "animationTracks" : {

                          }
                        },
                        {
                          "id" : 42,
                          "_type" : "ScreenVMFile",
                          "src" : 1,
                          "trackNumber" : 0,
                          "attributes" : {
                            "ident" : "Rec 4-22-2018"
                          },
                          "parameters" : {
                            "cursorScale" : {
                              "type" : "double",
                              "defaultValue" : 0.0,
                              "interp" : "linr"
                            },
                            "cursorOpacity" : {
                              "type" : "double",
                              "defaultValue" : 0.0,
                              "interp" : "linr"
                            }
                          },
                          "effects" : [

                          ],
                          "start" : 10240,
                          "duration" : 120,
                          "mediaStart" : 23484,
                          "mediaDuration" : 120,
                          "scalar" : 1,
                          "animationTracks" : {

                          }
                        },
                        {
                          "id" : 43,
                          "_type" : "ScreenVMFile",
                          "src" : 1,
                          "trackNumber" : 0,
                          "attributes" : {
                            "ident" : "Rec 4-22-2018"
                          },
                          "parameters" : {
                            "cursorScale" : {
                              "type" : "double",
                              "defaultValue" : 0.0,
                              "interp" : "linr"
                            },
                            "cursorOpacity" : {
                              "type" : "double",
                              "defaultValue" : 0.0,
                              "interp" : "linr"
                            }
                          },
                          "effects" : [

                          ],
                          "start" : 10360,
                          "duration" : 336,
                          "mediaStart" : 23668,
                          "mediaDuration" : 336,
                          "scalar" : 1,
                          "animationTracks" : {

                          }
                        },
                        {
                          "id" : 44,
                          "_type" : "ScreenVMFile",
                          "src" : 1,
                          "trackNumber" : 0,
                          "attributes" : {
                            "ident" : "Rec 4-22-2018"
                          },
                          "parameters" : {
                            "cursorScale" : {
                              "type" : "double",
                              "defaultValue" : 0.0,
                              "interp" : "linr"
                            },
                            "cursorOpacity" : {
                              "type" : "double",
                              "defaultValue" : 0.0,
                              "interp" : "linr"
                            }
                          },
                          "effects" : [

                          ],
                          "start" : 10696,
                          "duration" : 331,
                          "mediaStart" : 24697,
                          "mediaDuration" : 331,
                          "scalar" : 1,
                          "animationTracks" : {

                          }
                        },
                        {
                          "id" : 45,
                          "_type" : "ScreenVMFile",
                          "src" : 1,
                          "trackNumber" : 0,
                          "attributes" : {
                            "ident" : "Rec 4-22-2018"
                          },
                          "parameters" : {
                            "cursorScale" : {
                              "type" : "double",
                              "defaultValue" : 0.0,
                              "interp" : "linr"
                            },
                            "cursorOpacity" : {
                              "type" : "double",
                              "defaultValue" : 0.0,
                              "interp" : "linr"
                            }
                          },
                          "effects" : [

                          ],
                          "start" : 11027,
                          "duration" : 656,
                          "mediaStart" : 25140,
                          "mediaDuration" : 656,
                          "scalar" : 1,
                          "animationTracks" : {

                          }
                        },
                        {
                          "id" : 46,
                          "_type" : "ScreenVMFile",
                          "src" : 1,
                          "trackNumber" : 0,
                          "attributes" : {
                            "ident" : "Rec 4-22-2018"
                          },
                          "parameters" : {
                            "cursorScale" : {
                              "type" : "double",
                              "defaultValue" : 0.0,
                              "interp" : "linr"
                            },
                            "cursorOpacity" : {
                              "type" : "double",
                              "defaultValue" : 0.0,
                              "interp" : "linr"
                            }
                          },
                          "effects" : [

                          ],
                          "start" : 11683,
                          "duration" : 390,
                          "mediaStart" : 25807,
                          "mediaDuration" : 390,
                          "scalar" : 1,
                          "animationTracks" : {

                          }
                        },
                        {
                          "id" : 47,
                          "_type" : "ScreenVMFile",
                          "src" : 1,
                          "trackNumber" : 0,
                          "attributes" : {
                            "ident" : "Rec 4-22-2018"
                          },
                          "parameters" : {
                            "cursorScale" : {
                              "type" : "double",
                              "defaultValue" : 0.0,
                              "interp" : "linr"
                            },
                            "cursorOpacity" : {
                              "type" : "double",
                              "defaultValue" : 0.0,
                              "interp" : "linr"
                            }
                          },
                          "effects" : [

                          ],
                          "start" : 12073,
                          "duration" : 368,
                          "mediaStart" : 26206,
                          "mediaDuration" : 368,
                          "scalar" : 1,
                          "animationTracks" : {

                          }
                        },
                        {
                          "id" : 48,
                          "_type" : "ScreenVMFile",
                          "src" : 1,
                          "trackNumber" : 0,
                          "attributes" : {
                            "ident" : "Rec 4-22-2018"
                          },
                          "parameters" : {
                            "cursorScale" : {
                              "type" : "double",
                              "defaultValue" : 0.0,
                              "interp" : "linr"
                            },
                            "cursorOpacity" : {
                              "type" : "double",
                              "defaultValue" : 0.0,
                              "interp" : "linr"
                            }
                          },
                          "effects" : [

                          ],
                          "start" : 12441,
                          "duration" : 216,
                          "mediaStart" : 26639,
                          "mediaDuration" : 216,
                          "scalar" : 1,
                          "animationTracks" : {

                          }
                        },
                        {
                          "id" : 49,
                          "_type" : "ScreenVMFile",
                          "src" : 1,
                          "trackNumber" : 0,
                          "attributes" : {
                            "ident" : "Rec 4-22-2018"
                          },
                          "parameters" : {
                            "cursorScale" : {
                              "type" : "double",
                              "defaultValue" : 0.0,
                              "interp" : "linr"
                            },
                            "cursorOpacity" : {
                              "type" : "double",
                              "defaultValue" : 0.0,
                              "interp" : "linr"
                            }
                          },
                          "effects" : [

                          ],
                          "start" : 12657,
                          "duration" : 643,
                          "mediaStart" : 26970,
                          "mediaDuration" : 643,
                          "scalar" : 1,
                          "animationTracks" : {

                          }
                        },
                        {
                          "id" : 50,
                          "_type" : "ScreenVMFile",
                          "src" : 1,
                          "trackNumber" : 0,
                          "attributes" : {
                            "ident" : "Rec 4-22-2018"
                          },
                          "parameters" : {
                            "cursorScale" : {
                              "type" : "double",
                              "defaultValue" : 0.0,
                              "interp" : "linr"
                            },
                            "cursorOpacity" : {
                              "type" : "double",
                              "defaultValue" : 0.0,
                              "interp" : "linr"
                            }
                          },
                          "effects" : [

                          ],
                          "start" : 13300,
                          "duration" : 680,
                          "mediaStart" : 27753,
                          "mediaDuration" : 680,
                          "scalar" : 1,
                          "animationTracks" : {

                          }
                        },
                        {
                          "id" : 51,
                          "_type" : "ScreenVMFile",
                          "src" : 1,
                          "trackNumber" : 0,
                          "attributes" : {
                            "ident" : "Rec 4-22-2018"
                          },
                          "parameters" : {
                            "cursorScale" : {
                              "type" : "double",
                              "defaultValue" : 0.0,
                              "interp" : "linr"
                            },
                            "cursorOpacity" : {
                              "type" : "double",
                              "defaultValue" : 0.0,
                              "interp" : "linr"
                            }
                          },
                          "effects" : [

                          ],
                          "start" : 13980,
                          "duration" : 212,
                          "mediaStart" : 29298,
                          "mediaDuration" : 212,
                          "scalar" : 1,
                          "animationTracks" : {

                          }
                        },
                        {
                          "id" : 52,
                          "_type" : "ScreenVMFile",
                          "src" : 1,
                          "trackNumber" : 0,
                          "attributes" : {
                            "ident" : "Rec 4-22-2018"
                          },
                          "parameters" : {
                            "cursorScale" : {
                              "type" : "double",
                              "defaultValue" : 0.0,
                              "interp" : "linr"
                            },
                            "cursorOpacity" : {
                              "type" : "double",
                              "defaultValue" : 0.0,
                              "interp" : "linr"
                            }
                          },
                          "effects" : [

                          ],
                          "start" : 14192,
                          "duration" : 222,
                          "mediaStart" : 29788,
                          "mediaDuration" : 222,
                          "scalar" : 1,
                          "animationTracks" : {

                          }
                        },
                        {
                          "id" : 53,
                          "_type" : "ScreenVMFile",
                          "src" : 1,
                          "trackNumber" : 0,
                          "attributes" : {
                            "ident" : "Rec 4-22-2018"
                          },
                          "parameters" : {
                            "cursorScale" : {
                              "type" : "double",
                              "defaultValue" : 0.0,
                              "interp" : "linr"
                            },
                            "cursorOpacity" : {
                              "type" : "double",
                              "defaultValue" : 0.0,
                              "interp" : "linr"
                            }
                          },
                          "effects" : [

                          ],
                          "start" : 14414,
                          "duration" : 136,
                          "mediaStart" : 30098,
                          "mediaDuration" : 136,
                          "scalar" : 1,
                          "animationTracks" : {

                          }
                        },
                        {
                          "id" : 54,
                          "_type" : "ScreenVMFile",
                          "src" : 1,
                          "trackNumber" : 0,
                          "attributes" : {
                            "ident" : "Rec 4-22-2018"
                          },
                          "parameters" : {
                            "cursorScale" : {
                              "type" : "double",
                              "defaultValue" : 0.0,
                              "interp" : "linr"
                            },
                            "cursorOpacity" : {
                              "type" : "double",
                              "defaultValue" : 0.0,
                              "interp" : "linr"
                            }
                          },
                          "effects" : [

                          ],
                          "start" : 14550,
                          "duration" : 538,
                          "mediaStart" : 30311,
                          "mediaDuration" : 538,
                          "scalar" : 1,
                          "animationTracks" : {

                          }
                        },
                        {
                          "id" : 55,
                          "_type" : "ScreenVMFile",
                          "src" : 1,
                          "trackNumber" : 0,
                          "attributes" : {
                            "ident" : "Rec 4-22-2018"
                          },
                          "parameters" : {
                            "cursorScale" : {
                              "type" : "double",
                              "defaultValue" : 0.0,
                              "interp" : "linr"
                            },
                            "cursorOpacity" : {
                              "type" : "double",
                              "defaultValue" : 0.0,
                              "interp" : "linr"
                            }
                          },
                          "effects" : [

                          ],
                          "start" : 15088,
                          "duration" : 187,
                          "mediaStart" : 30855,
                          "mediaDuration" : 187,
                          "scalar" : 1,
                          "animationTracks" : {

                          }
                        },
                        {
                          "id" : 56,
                          "_type" : "ScreenVMFile",
                          "src" : 1,
                          "trackNumber" : 0,
                          "attributes" : {
                            "ident" : "Rec 4-22-2018"
                          },
                          "parameters" : {
                            "cursorScale" : {
                              "type" : "double",
                              "defaultValue" : 0.0,
                              "interp" : "linr"
                            },
                            "cursorOpacity" : {
                              "type" : "double",
                              "defaultValue" : 0.0,
                              "interp" : "linr"
                            }
                          },
                          "effects" : [

                          ],
                          "start" : 15275,
                          "duration" : 280,
                          "mediaStart" : 31192,
                          "mediaDuration" : 280,
                          "scalar" : 1,
                          "animationTracks" : {

                          }
                        },
                        {
                          "id" : 57,
                          "_type" : "ScreenVMFile",
                          "src" : 1,
                          "trackNumber" : 0,
                          "attributes" : {
                            "ident" : "Rec 4-22-2018"
                          },
                          "parameters" : {
                            "cursorScale" : {
                              "type" : "double",
                              "defaultValue" : 0.0,
                              "interp" : "linr"
                            },
                            "cursorOpacity" : {
                              "type" : "double",
                              "defaultValue" : 0.0,
                              "interp" : "linr"
                            }
                          },
                          "effects" : [

                          ],
                          "start" : 15555,
                          "duration" : 680,
                          "mediaStart" : 31562,
                          "mediaDuration" : 680,
                          "scalar" : 1,
                          "animationTracks" : {

                          }
                        },
                        {
                          "id" : 58,
                          "_type" : "ScreenVMFile",
                          "src" : 1,
                          "trackNumber" : 0,
                          "attributes" : {
                            "ident" : "Rec 4-22-2018"
                          },
                          "parameters" : {
                            "cursorScale" : {
                              "type" : "double",
                              "defaultValue" : 0.0,
                              "interp" : "linr"
                            },
                            "cursorOpacity" : {
                              "type" : "double",
                              "defaultValue" : 0.0,
                              "interp" : "linr"
                            }
                          },
                          "effects" : [

                          ],
                          "start" : 16235,
                          "duration" : 641,
                          "mediaStart" : 32551,
                          "mediaDuration" : 641,
                          "scalar" : 1,
                          "animationTracks" : {

                          }
                        },
                        {
                          "id" : 59,
                          "_type" : "ScreenVMFile",
                          "src" : 1,
                          "trackNumber" : 0,
                          "attributes" : {
                            "ident" : "Rec 4-22-2018"
                          },
                          "parameters" : {
                            "cursorScale" : {
                              "type" : "double",
                              "defaultValue" : 0.0,
                              "interp" : "linr"
                            },
                            "cursorOpacity" : {
                              "type" : "double",
                              "defaultValue" : 0.0,
                              "interp" : "linr"
                            }
                          },
                          "effects" : [

                          ],
                          "start" : 16876,
                          "duration" : 709,
                          "mediaStart" : 33196,
                          "mediaDuration" : 709,
                          "scalar" : 1,
                          "animationTracks" : {

                          }
                        },
                        {
                          "id" : 60,
                          "_type" : "ScreenVMFile",
                          "src" : 1,
                          "trackNumber" : 0,
                          "attributes" : {
                            "ident" : "Rec 4-22-2018"
                          },
                          "parameters" : {
                            "cursorScale" : {
                              "type" : "double",
                              "defaultValue" : 0.0,
                              "interp" : "linr"
                            },
                            "cursorOpacity" : {
                              "type" : "double",
                              "defaultValue" : 0.0,
                              "interp" : "linr"
                            }
                          },
                          "effects" : [

                          ],
                          "start" : 17585,
                          "duration" : 477,
                          "mediaStart" : 34239,
                          "mediaDuration" : 477,
                          "scalar" : 1,
                          "animationTracks" : {

                          }
                        },
                        {
                          "id" : 61,
                          "_type" : "ScreenVMFile",
                          "src" : 1,
                          "trackNumber" : 0,
                          "attributes" : {
                            "ident" : "Rec 4-22-2018"
                          },
                          "parameters" : {
                            "cursorScale" : {
                              "type" : "double",
                              "defaultValue" : 0.0,
                              "interp" : "linr"
                            },
                            "cursorOpacity" : {
                              "type" : "double",
                              "defaultValue" : 0.0,
                              "interp" : "linr"
                            }
                          },
                          "effects" : [

                          ],
                          "start" : 18062,
                          "duration" : 648,
                          "mediaStart" : 34869,
                          "mediaDuration" : 648,
                          "scalar" : 1,
                          "animationTracks" : {

                          }
                        },
                        {
                          "id" : 62,
                          "_type" : "ScreenVMFile",
                          "src" : 1,
                          "trackNumber" : 0,
                          "attributes" : {
                            "ident" : "Rec 4-22-2018"
                          },
                          "parameters" : {
                            "cursorScale" : {
                              "type" : "double",
                              "defaultValue" : 0.0,
                              "interp" : "linr"
                            },
                            "cursorOpacity" : {
                              "type" : "double",
                              "defaultValue" : 0.0,
                              "interp" : "linr"
                            }
                          },
                          "effects" : [

                          ],
                          "start" : 18710,
                          "duration" : 225,
                          "mediaStart" : 35534,
                          "mediaDuration" : 225,
                          "scalar" : 1,
                          "animationTracks" : {

                          }
                        },
                        {
                          "id" : 63,
                          "_type" : "ScreenVMFile",
                          "src" : 1,
                          "trackNumber" : 0,
                          "attributes" : {
                            "ident" : "Rec 4-22-2018"
                          },
                          "parameters" : {
                            "cursorScale" : {
                              "type" : "double",
                              "defaultValue" : 0.0,
                              "interp" : "linr"
                            },
                            "cursorOpacity" : {
                              "type" : "double",
                              "defaultValue" : 0.0,
                              "interp" : "linr"
                            }
                          },
                          "effects" : [

                          ],
                          "start" : 18935,
                          "duration" : 23,
                          "mediaStart" : 35773,
                          "mediaDuration" : 23,
                          "scalar" : 1,
                          "animationTracks" : {

                          }
                        },
                        {
                          "id" : 64,
                          "_type" : "ScreenVMFile",
                          "src" : 1,
                          "trackNumber" : 0,
                          "attributes" : {
                            "ident" : "Rec 4-22-2018"
                          },
                          "parameters" : {
                            "cursorScale" : {
                              "type" : "double",
                              "defaultValue" : 0.0,
                              "interp" : "linr"
                            },
                            "cursorOpacity" : {
                              "type" : "double",
                              "defaultValue" : 0.0,
                              "interp" : "linr"
                            }
                          },
                          "effects" : [

                          ],
                          "start" : 18958,
                          "duration" : 109,
                          "mediaStart" : 35802,
                          "mediaDuration" : 109,
                          "scalar" : 1,
                          "animationTracks" : {

                          }
                        },
                        {
                          "id" : 65,
                          "_type" : "ScreenVMFile",
                          "src" : 1,
                          "trackNumber" : 0,
                          "attributes" : {
                            "ident" : "Rec 4-22-2018"
                          },
                          "parameters" : {
                            "cursorScale" : {
                              "type" : "double",
                              "defaultValue" : 0.0,
                              "interp" : "linr"
                            },
                            "cursorOpacity" : {
                              "type" : "double",
                              "defaultValue" : 0.0,
                              "interp" : "linr"
                            }
                          },
                          "effects" : [

                          ],
                          "start" : 19067,
                          "duration" : 227,
                          "mediaStart" : 36794,
                          "mediaDuration" : 227,
                          "scalar" : 1,
                          "animationTracks" : {

                          }
                        },
                        {
                          "id" : 66,
                          "_type" : "ScreenVMFile",
                          "src" : 1,
                          "trackNumber" : 0,
                          "attributes" : {
                            "ident" : "Rec 4-22-2018"
                          },
                          "parameters" : {
                            "cursorScale" : {
                              "type" : "double",
                              "defaultValue" : 0.0,
                              "interp" : "linr"
                            },
                            "cursorOpacity" : {
                              "type" : "double",
                              "defaultValue" : 0.0,
                              "interp" : "linr"
                            }
                          },
                          "effects" : [

                          ],
                          "start" : 19294,
                          "duration" : 93,
                          "mediaStart" : 37158,
                          "mediaDuration" : 93,
                          "scalar" : 1,
                          "animationTracks" : {

                          }
                        },
                        {
                          "id" : 67,
                          "_type" : "ScreenVMFile",
                          "src" : 1,
                          "trackNumber" : 0,
                          "attributes" : {
                            "ident" : "Rec 4-22-2018"
                          },
                          "parameters" : {
                            "cursorScale" : {
                              "type" : "double",
                              "defaultValue" : 0.0,
                              "interp" : "linr"
                            },
                            "cursorOpacity" : {
                              "type" : "double",
                              "defaultValue" : 0.0,
                              "interp" : "linr"
                            }
                          },
                          "effects" : [

                          ],
                          "start" : 19387,
                          "duration" : 122,
                          "mediaStart" : 37262,
                          "mediaDuration" : 122,
                          "scalar" : 1,
                          "animationTracks" : {

                          }
                        },
                        {
                          "id" : 68,
                          "_type" : "ScreenVMFile",
                          "src" : 1,
                          "trackNumber" : 0,
                          "attributes" : {
                            "ident" : "Rec 4-22-2018"
                          },
                          "parameters" : {
                            "cursorScale" : {
                              "type" : "double",
                              "defaultValue" : 0.0,
                              "interp" : "linr"
                            },
                            "cursorOpacity" : {
                              "type" : "double",
                              "defaultValue" : 0.0,
                              "interp" : "linr"
                            }
                          },
                          "effects" : [

                          ],
                          "start" : 19509,
                          "duration" : 109,
                          "mediaStart" : 37412,
                          "mediaDuration" : 109,
                          "scalar" : 1,
                          "animationTracks" : {

                          }
                        },
                        {
                          "id" : 69,
                          "_type" : "ScreenVMFile",
                          "src" : 1,
                          "trackNumber" : 0,
                          "attributes" : {
                            "ident" : "Rec 4-22-2018"
                          },
                          "parameters" : {
                            "cursorScale" : {
                              "type" : "double",
                              "defaultValue" : 0.0,
                              "interp" : "linr"
                            },
                            "cursorOpacity" : {
                              "type" : "double",
                              "defaultValue" : 0.0,
                              "interp" : "linr"
                            }
                          },
                          "effects" : [

                          ],
                          "start" : 19618,
                          "duration" : 216,
                          "mediaStart" : 37550,
                          "mediaDuration" : 216,
                          "scalar" : 1,
                          "animationTracks" : {

                          }
                        },
                        {
                          "id" : 70,
                          "_type" : "ScreenVMFile",
                          "src" : 1,
                          "trackNumber" : 0,
                          "attributes" : {
                            "ident" : "Rec 4-22-2018"
                          },
                          "parameters" : {
                            "cursorScale" : {
                              "type" : "double",
                              "defaultValue" : 0.0,
                              "interp" : "linr"
                            },
                            "cursorOpacity" : {
                              "type" : "double",
                              "defaultValue" : 0.0,
                              "interp" : "linr"
                            }
                          },
                          "effects" : [

                          ],
                          "start" : 19834,
                          "duration" : 774,
                          "mediaStart" : 37836,
                          "mediaDuration" : 774,
                          "scalar" : 1,
                          "animationTracks" : {

                          }
                        },
                        {
                          "id" : 71,
                          "_type" : "ScreenVMFile",
                          "src" : 1,
                          "trackNumber" : 0,
                          "attributes" : {
                            "ident" : "Rec 4-22-2018"
                          },
                          "parameters" : {
                            "cursorScale" : {
                              "type" : "double",
                              "defaultValue" : 0.0,
                              "interp" : "linr"
                            },
                            "cursorOpacity" : {
                              "type" : "double",
                              "defaultValue" : 0.0,
                              "interp" : "linr"
                            }
                          },
                          "effects" : [

                          ],
                          "start" : 20608,
                          "duration" : 164,
                          "mediaStart" : 38689,
                          "mediaDuration" : 164,
                          "scalar" : 1,
                          "animationTracks" : {

                          }
                        },
                        {
                          "id" : 72,
                          "_type" : "ScreenVMFile",
                          "src" : 1,
                          "trackNumber" : 0,
                          "attributes" : {
                            "ident" : "Rec 4-22-2018"
                          },
                          "parameters" : {
                            "cursorScale" : {
                              "type" : "double",
                              "defaultValue" : 0.0,
                              "interp" : "linr"
                            },
                            "cursorOpacity" : {
                              "type" : "double",
                              "defaultValue" : 0.0,
                              "interp" : "linr"
                            }
                          },
                          "effects" : [

                          ],
                          "start" : 20772,
                          "duration" : 580,
                          "mediaStart" : 38862,
                          "mediaDuration" : 580,
                          "scalar" : 1,
                          "animationTracks" : {

                          }
                        },
                        {
                          "id" : 73,
                          "_type" : "ScreenVMFile",
                          "src" : 1,
                          "trackNumber" : 0,
                          "attributes" : {
                            "ident" : "Rec 4-22-2018"
                          },
                          "parameters" : {
                            "cursorScale" : {
                              "type" : "double",
                              "defaultValue" : 0.0,
                              "interp" : "linr"
                            },
                            "cursorOpacity" : {
                              "type" : "double",
                              "defaultValue" : 0.0,
                              "interp" : "linr"
                            }
                          },
                          "effects" : [

                          ],
                          "start" : 21352,
                          "duration" : 324,
                          "mediaStart" : 39513,
                          "mediaDuration" : 324,
                          "scalar" : 1,
                          "animationTracks" : {

                          }
                        },
                        {
                          "id" : 74,
                          "_type" : "ScreenVMFile",
                          "src" : 1,
                          "trackNumber" : 0,
                          "attributes" : {
                            "ident" : "Rec 4-22-2018"
                          },
                          "parameters" : {
                            "cursorScale" : {
                              "type" : "double",
                              "defaultValue" : 0.0,
                              "interp" : "linr"
                            },
                            "cursorOpacity" : {
                              "type" : "double",
                              "defaultValue" : 0.0,
                              "interp" : "linr"
                            }
                          },
                          "effects" : [

                          ],
                          "start" : 21676,
                          "duration" : 710,
                          "mediaStart" : 39996,
                          "mediaDuration" : 710,
                          "scalar" : 1,
                          "animationTracks" : {

                          }
                        },
                        {
                          "id" : 75,
                          "_type" : "ScreenVMFile",
                          "src" : 1,
                          "trackNumber" : 0,
                          "attributes" : {
                            "ident" : "Rec 4-22-2018"
                          },
                          "parameters" : {
                            "cursorScale" : {
                              "type" : "double",
                              "defaultValue" : 0.0,
                              "interp" : "linr"
                            },
                            "cursorOpacity" : {
                              "type" : "double",
                              "defaultValue" : 0.0,
                              "interp" : "linr"
                            }
                          },
                          "effects" : [

                          ],
                          "start" : 22386,
                          "duration" : 81,
                          "mediaStart" : 40869,
                          "mediaDuration" : 81,
                          "scalar" : 1,
                          "animationTracks" : {

                          }
                        },
                        {
                          "id" : 76,
                          "_type" : "ScreenVMFile",
                          "src" : 1,
                          "trackNumber" : 0,
                          "attributes" : {
                            "ident" : "Rec 4-22-2018"
                          },
                          "parameters" : {
                            "cursorScale" : {
                              "type" : "double",
                              "defaultValue" : 0.0,
                              "interp" : "linr"
                            },
                            "cursorOpacity" : {
                              "type" : "double",
                              "defaultValue" : 0.0,
                              "interp" : "linr"
                            }
                          },
                          "effects" : [

                          ],
                          "start" : 22467,
                          "duration" : 260,
                          "mediaStart" : 41135,
                          "mediaDuration" : 260,
                          "scalar" : 1,
                          "animationTracks" : {

                          }
                        },
                        {
                          "id" : 77,
                          "_type" : "ScreenVMFile",
                          "src" : 1,
                          "trackNumber" : 0,
                          "attributes" : {
                            "ident" : "Rec 4-22-2018"
                          },
                          "parameters" : {
                            "cursorScale" : {
                              "type" : "double",
                              "defaultValue" : 0.0,
                              "interp" : "linr"
                            },
                            "cursorOpacity" : {
                              "type" : "double",
                              "defaultValue" : 0.0,
                              "interp" : "linr"
                            }
                          },
                          "effects" : [

                          ],
                          "start" : 22727,
                          "duration" : 135,
                          "mediaStart" : 42089,
                          "mediaDuration" : 135,
                          "scalar" : 1,
                          "animationTracks" : {

                          }
                        },
                        {
                          "id" : 78,
                          "_type" : "ScreenVMFile",
                          "src" : 1,
                          "trackNumber" : 0,
                          "attributes" : {
                            "ident" : "Rec 4-22-2018"
                          },
                          "parameters" : {
                            "cursorScale" : {
                              "type" : "double",
                              "defaultValue" : 0.0,
                              "interp" : "linr"
                            },
                            "cursorOpacity" : {
                              "type" : "double",
                              "defaultValue" : 0.0,
                              "interp" : "linr"
                            }
                          },
                          "effects" : [

                          ],
                          "start" : 22862,
                          "duration" : 119,
                          "mediaStart" : 42326,
                          "mediaDuration" : 119,
                          "scalar" : 1,
                          "animationTracks" : {

                          }
                        },
                        {
                          "id" : 79,
                          "_type" : "ScreenVMFile",
                          "src" : 1,
                          "trackNumber" : 0,
                          "attributes" : {
                            "ident" : "Rec 4-22-2018"
                          },
                          "parameters" : {
                            "cursorScale" : {
                              "type" : "double",
                              "defaultValue" : 0.0,
                              "interp" : "linr"
                            },
                            "cursorOpacity" : {
                              "type" : "double",
                              "defaultValue" : 0.0,
                              "interp" : "linr"
                            }
                          },
                          "effects" : [

                          ],
                          "start" : 22981,
                          "duration" : 142,
                          "mediaStart" : 42531,
                          "mediaDuration" : 142,
                          "scalar" : 1,
                          "animationTracks" : {

                          }
                        },
                        {
                          "id" : 80,
                          "_type" : "ScreenVMFile",
                          "src" : 1,
                          "trackNumber" : 0,
                          "attributes" : {
                            "ident" : "Rec 4-22-2018"
                          },
                          "parameters" : {
                            "cursorScale" : {
                              "type" : "double",
                              "defaultValue" : 0.0,
                              "interp" : "linr"
                            },
                            "cursorOpacity" : {
                              "type" : "double",
                              "defaultValue" : 0.0,
                              "interp" : "linr"
                            }
                          },
                          "effects" : [

                          ],
                          "start" : 23123,
                          "duration" : 284,
                          "mediaStart" : 42864,
                          "mediaDuration" : 284,
                          "scalar" : 1,
                          "animationTracks" : {

                          }
                        },
                        {
                          "id" : 81,
                          "_type" : "ScreenVMFile",
                          "src" : 1,
                          "trackNumber" : 0,
                          "attributes" : {
                            "ident" : "Rec 4-22-2018"
                          },
                          "parameters" : {
                            "cursorScale" : {
                              "type" : "double",
                              "defaultValue" : 0.0,
                              "interp" : "linr"
                            },
                            "cursorOpacity" : {
                              "type" : "double",
                              "defaultValue" : 0.0,
                              "interp" : "linr"
                            }
                          },
                          "effects" : [

                          ],
                          "start" : 23407,
                          "duration" : 236,
                          "mediaStart" : 43152,
                          "mediaDuration" : 236,
                          "scalar" : 1,
                          "animationTracks" : {

                          }
                        },
                        {
                          "id" : 82,
                          "_type" : "ScreenVMFile",
                          "src" : 1,
                          "trackNumber" : 0,
                          "attributes" : {
                            "ident" : "Rec 4-22-2018"
                          },
                          "parameters" : {
                            "cursorScale" : {
                              "type" : "double",
                              "defaultValue" : 0.0,
                              "interp" : "linr"
                            },
                            "cursorOpacity" : {
                              "type" : "double",
                              "defaultValue" : 0.0,
                              "interp" : "linr"
                            }
                          },
                          "effects" : [

                          ],
                          "start" : 23643,
                          "duration" : 65,
                          "mediaStart" : 44173,
                          "mediaDuration" : 65,
                          "scalar" : 1,
                          "animationTracks" : {

                          }
                        },
                        {
                          "id" : 83,
                          "_type" : "ScreenVMFile",
                          "src" : 1,
                          "trackNumber" : 0,
                          "attributes" : {
                            "ident" : "Rec 4-22-2018"
                          },
                          "parameters" : {
                            "cursorScale" : {
                              "type" : "double",
                              "defaultValue" : 0.0,
                              "interp" : "linr"
                            },
                            "cursorOpacity" : {
                              "type" : "double",
                              "defaultValue" : 0.0,
                              "interp" : "linr"
                            }
                          },
                          "effects" : [

                          ],
                          "start" : 23708,
                          "duration" : 13,
                          "mediaStart" : 44248,
                          "mediaDuration" : 13,
                          "scalar" : 1,
                          "animationTracks" : {

                          }
                        },
                        {
                          "id" : 84,
                          "_type" : "ScreenVMFile",
                          "src" : 1,
                          "trackNumber" : 0,
                          "attributes" : {
                            "ident" : "Rec 4-22-2018"
                          },
                          "parameters" : {
                            "cursorScale" : {
                              "type" : "double",
                              "defaultValue" : 0.0,
                              "interp" : "linr"
                            },
                            "cursorOpacity" : {
                              "type" : "double",
                              "defaultValue" : 0.0,
                              "interp" : "linr"
                            }
                          },
                          "effects" : [

                          ],
                          "start" : 23721,
                          "duration" : 12,
                          "mediaStart" : 44272,
                          "mediaDuration" : 12,
                          "scalar" : 1,
                          "animationTracks" : {

                          }
                        },
                        {
                          "id" : 85,
                          "_type" : "ScreenVMFile",
                          "src" : 1,
                          "trackNumber" : 0,
                          "attributes" : {
                            "ident" : "Rec 4-22-2018"
                          },
                          "parameters" : {
                            "cursorScale" : {
                              "type" : "double",
                              "defaultValue" : 0.0,
                              "interp" : "linr"
                            },
                            "cursorOpacity" : {
                              "type" : "double",
                              "defaultValue" : 0.0,
                              "interp" : "linr"
                            }
                          },
                          "effects" : [

                          ],
                          "start" : 23733,
                          "duration" : 45,
                          "mediaStart" : 44290,
                          "mediaDuration" : 45,
                          "scalar" : 1,
                          "animationTracks" : {

                          }
                        },
                        {
                          "id" : 86,
                          "_type" : "ScreenVMFile",
                          "src" : 1,
                          "trackNumber" : 0,
                          "attributes" : {
                            "ident" : "Rec 4-22-2018"
                          },
                          "parameters" : {
                            "cursorScale" : {
                              "type" : "double",
                              "defaultValue" : 0.0,
                              "interp" : "linr"
                            },
                            "cursorOpacity" : {
                              "type" : "double",
                              "defaultValue" : 0.0,
                              "interp" : "linr"
                            }
                          },
                          "effects" : [

                          ],
                          "start" : 23778,
                          "duration" : 225,
                          "mediaStart" : 44372,
                          "mediaDuration" : 225,
                          "scalar" : 1,
                          "animationTracks" : {

                          }
                        },
                        {
                          "id" : 87,
                          "_type" : "ScreenVMFile",
                          "src" : 1,
                          "trackNumber" : 0,
                          "attributes" : {
                            "ident" : "Rec 4-22-2018"
                          },
                          "parameters" : {
                            "cursorScale" : {
                              "type" : "double",
                              "defaultValue" : 0.0,
                              "interp" : "linr"
                            },
                            "cursorOpacity" : {
                              "type" : "double",
                              "defaultValue" : 0.0,
                              "interp" : "linr"
                            }
                          },
                          "effects" : [

                          ],
                          "start" : 24003,
                          "duration" : 226,
                          "mediaStart" : 44731,
                          "mediaDuration" : 226,
                          "scalar" : 1,
                          "animationTracks" : {

                          }
                        },
                        {
                          "id" : 88,
                          "_type" : "ScreenVMFile",
                          "src" : 1,
                          "trackNumber" : 0,
                          "attributes" : {
                            "ident" : "Rec 4-22-2018"
                          },
                          "parameters" : {
                            "cursorScale" : {
                              "type" : "double",
                              "defaultValue" : 0.0,
                              "interp" : "linr"
                            },
                            "cursorOpacity" : {
                              "type" : "double",
                              "defaultValue" : 0.0,
                              "interp" : "linr"
                            }
                          },
                          "effects" : [

                          ],
                          "start" : 24229,
                          "duration" : 1338,
                          "mediaStart" : 45683,
                          "mediaDuration" : 1338,
                          "scalar" : 1,
                          "animationTracks" : {

                          }
                        },
                        {
                          "id" : 89,
                          "_type" : "ScreenVMFile",
                          "src" : 1,
                          "trackNumber" : 0,
                          "attributes" : {
                            "ident" : "Rec 4-22-2018"
                          },
                          "parameters" : {
                            "cursorScale" : {
                              "type" : "double",
                              "defaultValue" : 0.0,
                              "interp" : "linr"
                            },
                            "cursorOpacity" : {
                              "type" : "double",
                              "defaultValue" : 0.0,
                              "interp" : "linr"
                            }
                          },
                          "effects" : [

                          ],
                          "start" : 25567,
                          "duration" : 403,
                          "mediaStart" : 47219,
                          "mediaDuration" : 403,
                          "scalar" : 1,
                          "animationTracks" : {

                          }
                        },
                        {
                          "id" : 90,
                          "_type" : "ScreenVMFile",
                          "src" : 1,
                          "trackNumber" : 0,
                          "attributes" : {
                            "ident" : "Rec 4-22-2018"
                          },
                          "parameters" : {
                            "cursorScale" : {
                              "type" : "double",
                              "defaultValue" : 0.0,
                              "interp" : "linr"
                            },
                            "cursorOpacity" : {
                              "type" : "double",
                              "defaultValue" : 0.0,
                              "interp" : "linr"
                            }
                          },
                          "effects" : [

                          ],
                          "start" : 25970,
                          "duration" : 102,
                          "mediaStart" : 48351,
                          "mediaDuration" : 102,
                          "scalar" : 1,
                          "animationTracks" : {

                          }
                        },
                        {
                          "id" : 91,
                          "_type" : "ScreenVMFile",
                          "src" : 1,
                          "trackNumber" : 0,
                          "attributes" : {
                            "ident" : "Rec 4-22-2018"
                          },
                          "parameters" : {
                            "cursorScale" : {
                              "type" : "double",
                              "defaultValue" : 0.0,
                              "interp" : "linr"
                            },
                            "cursorOpacity" : {
                              "type" : "double",
                              "defaultValue" : 0.0,
                              "interp" : "linr"
                            }
                          },
                          "effects" : [

                          ],
                          "start" : 26072,
                          "duration" : 185,
                          "mediaStart" : 48531,
                          "mediaDuration" : 185,
                          "scalar" : 1,
                          "animationTracks" : {

                          }
                        },
                        {
                          "id" : 92,
                          "_type" : "ScreenVMFile",
                          "src" : 1,
                          "trackNumber" : 0,
                          "attributes" : {
                            "ident" : "Rec 4-22-2018"
                          },
                          "parameters" : {
                            "cursorScale" : {
                              "type" : "double",
                              "defaultValue" : 0.0,
                              "interp" : "linr"
                            },
                            "cursorOpacity" : {
                              "type" : "double",
                              "defaultValue" : 0.0,
                              "interp" : "linr"
                            }
                          },
                          "effects" : [

                          ],
                          "start" : 26257,
                          "duration" : 109,
                          "mediaStart" : 48896,
                          "mediaDuration" : 109,
                          "scalar" : 1,
                          "animationTracks" : {

                          }
                        },
                        {
                          "id" : 93,
                          "_type" : "ScreenVMFile",
                          "src" : 1,
                          "trackNumber" : 0,
                          "attributes" : {
                            "ident" : "Rec 4-22-2018"
                          },
                          "parameters" : {
                            "cursorScale" : {
                              "type" : "double",
                              "defaultValue" : 0.0,
                              "interp" : "linr"
                            },
                            "cursorOpacity" : {
                              "type" : "double",
                              "defaultValue" : 0.0,
                              "interp" : "linr"
                            }
                          },
                          "effects" : [

                          ],
                          "start" : 26366,
                          "duration" : 813,
                          "mediaStart" : 49255,
                          "mediaDuration" : 813,
                          "scalar" : 1,
                          "animationTracks" : {

                          }
                        },
                        {
                          "id" : 94,
                          "_type" : "ScreenVMFile",
                          "src" : 1,
                          "trackNumber" : 0,
                          "attributes" : {
                            "ident" : "Rec 4-22-2018"
                          },
                          "parameters" : {
                            "cursorScale" : {
                              "type" : "double",
                              "defaultValue" : 0.0,
                              "interp" : "linr"
                            },
                            "cursorOpacity" : {
                              "type" : "double",
                              "defaultValue" : 0.0,
                              "interp" : "linr"
                            }
                          },
                          "effects" : [

                          ],
                          "start" : 27179,
                          "duration" : 946,
                          "mediaStart" : 50138,
                          "mediaDuration" : 946,
                          "scalar" : 1,
                          "animationTracks" : {

                          }
                        },
                        {
                          "id" : 95,
                          "_type" : "ScreenVMFile",
                          "src" : 1,
                          "trackNumber" : 0,
                          "attributes" : {
                            "ident" : "Rec 4-22-2018"
                          },
                          "parameters" : {
                            "cursorScale" : {
                              "type" : "double",
                              "defaultValue" : 0.0,
                              "interp" : "linr"
                            },
                            "cursorOpacity" : {
                              "type" : "double",
                              "defaultValue" : 0.0,
                              "interp" : "linr"
                            }
                          },
                          "effects" : [

                          ],
                          "start" : 28125,
                          "duration" : 304,
                          "mediaStart" : 51213,
                          "mediaDuration" : 304,
                          "scalar" : 1,
                          "animationTracks" : {

                          }
                        }
                    ],
                    "effects" : [

                    ],
                    "start" : 0,
                    "duration" : 27761,
                    "mediaStart" : 486,
                    "mediaDuration" : 27761,
                    "scalar" : 1,
                    "metadata" : {
                      "clipSpeedAttribute" : false,
                      "effectApplied" : "none"
                    },
                    "animationTracks" : {

                    }
                  }
                ]
              },
              {
                "trackIndex" : 1,
                "medias" : [
                  {
                    "id" : 96,
                    "_type" : "StitchedMedia",
                    "minMediaStart" : 0,
                    "attributes" : {
                      "ident" : "Rec 4-22-2018",
                      "gain" : 1.0,
                      "mixToMono" : false
                    },
                    "parameters" : {
                      "volume" : {
                        "type" : "double",
                        "keyframes" : [
                          {
                            "time" : 0,
                            "value" : 1.0,
                            "duration" : 0
                          },
                          {
                            "time" : 486,
                            "value" : 1.32551769578313,
                            "duration" : 0
                          }
                        ]
                      },
                      "cursorOpacity" : 1.0,
                      "cursorScale" : 1.0
                    },
                    "medias" : [
                        {
                          "id" : 97,
                          "_type" : "AMFile",
                          "src" : 1,
                          "trackNumber" : 1,
                          "attributes" : {
                            "ident" : "",
                            "sampleRate" : 44100,
                            "bitDepth" : 16,
                            "gain" : 1.0,
                            "mixToMono" : false
                          },
                            "channelNumber" : "0,1",
                          "effects" : [

                          ],
                          "start" : 0,
                          "duration" : 513,
                          "mediaStart" : 0,
                          "mediaDuration" : 513,
                          "scalar" : 1,
                          "animationTracks" : {

                          }
                        },
                        {
                          "id" : 98,
                          "_type" : "AMFile",
                          "src" : 1,
                          "trackNumber" : 1,
                          "attributes" : {
                            "ident" : "",
                            "sampleRate" : 44100,
                            "bitDepth" : 16,
                            "gain" : 1.0,
                            "mixToMono" : false
                          },
                            "channelNumber" : "0,1",
                          "effects" : [

                          ],
                          "start" : 513,
                          "duration" : 393,
                          "mediaStart" : 681,
                          "mediaDuration" : 393,
                          "scalar" : 1,
                          "animationTracks" : {

                          }
                        },
                        {
                          "id" : 99,
                          "_type" : "AMFile",
                          "src" : 1,
                          "trackNumber" : 1,
                          "attributes" : {
                            "ident" : "",
                            "sampleRate" : 44100,
                            "bitDepth" : 16,
                            "gain" : 1.0,
                            "mixToMono" : false
                          },
                            "channelNumber" : "0,1",
                          "effects" : [

                          ],
                          "start" : 906,
                          "duration" : 574,
                          "mediaStart" : 1694,
                          "mediaDuration" : 574,
                          "scalar" : 1,
                          "animationTracks" : {

                          }
                        },
                        {
                          "id" : 100,
                          "_type" : "AMFile",
                          "src" : 1,
                          "trackNumber" : 1,
                          "attributes" : {
                            "ident" : "",
                            "sampleRate" : 44100,
                            "bitDepth" : 16,
                            "gain" : 1.0,
                            "mixToMono" : false
                          },
                            "channelNumber" : "0,1",
                          "effects" : [

                          ],
                          "start" : 1480,
                          "duration" : 82,
                          "mediaStart" : 2279,
                          "mediaDuration" : 82,
                          "scalar" : 1,
                          "animationTracks" : {

                          }
                        },
                        {
                          "id" : 101,
                          "_type" : "AMFile",
                          "src" : 1,
                          "trackNumber" : 1,
                          "attributes" : {
                            "ident" : "",
                            "sampleRate" : 44100,
                            "bitDepth" : 16,
                            "gain" : 1.0,
                            "mixToMono" : false
                          },
                            "channelNumber" : "0,1",
                          "effects" : [

                          ],
                          "start" : 1562,
                          "duration" : 50,
                          "mediaStart" : 5278,
                          "mediaDuration" : 50,
                          "scalar" : 1,
                          "animationTracks" : {

                          }
                        },
                        {
                          "id" : 102,
                          "_type" : "AMFile",
                          "src" : 1,
                          "trackNumber" : 1,
                          "attributes" : {
                            "ident" : "",
                            "sampleRate" : 44100,
                            "bitDepth" : 16,
                            "gain" : 1.0,
                            "mixToMono" : false
                          },
                            "channelNumber" : "0,1",
                          "effects" : [

                          ],
                          "start" : 1612,
                          "duration" : 171,
                          "mediaStart" : 5340,
                          "mediaDuration" : 171,
                          "scalar" : 1,
                          "animationTracks" : {

                          }
                        },
                        {
                          "id" : 103,
                          "_type" : "AMFile",
                          "src" : 1,
                          "trackNumber" : 1,
                          "attributes" : {
                            "ident" : "",
                            "sampleRate" : 44100,
                            "bitDepth" : 16,
                            "gain" : 1.0,
                            "mixToMono" : false
                          },
                            "channelNumber" : "0,1",
                          "effects" : [

                          ],
                          "start" : 1783,
                          "duration" : 343,
                          "mediaStart" : 6632,
                          "mediaDuration" : 343,
                          "scalar" : 1,
                          "animationTracks" : {

                          }
                        },
                        {
                          "id" : 104,
                          "_type" : "AMFile",
                          "src" : 1,
                          "trackNumber" : 1,
                          "attributes" : {
                            "ident" : "",
                            "sampleRate" : 44100,
                            "bitDepth" : 16,
                            "gain" : 1.0,
                            "mixToMono" : false
                          },
                            "channelNumber" : "0,1",
                          "effects" : [

                          ],
                          "start" : 2126,
                          "duration" : 70,
                          "mediaStart" : 6986,
                          "mediaDuration" : 70,
                          "scalar" : 1,
                          "animationTracks" : {

                          }
                        },
                        {
                          "id" : 105,
                          "_type" : "AMFile",
                          "src" : 1,
                          "trackNumber" : 1,
                          "attributes" : {
                            "ident" : "",
                            "sampleRate" : 44100,
                            "bitDepth" : 16,
                            "gain" : 1.0,
                            "mixToMono" : false
                          },
                            "channelNumber" : "0,1",
                          "effects" : [

                          ],
                          "start" : 2196,
                          "duration" : 17,
                          "mediaStart" : 7077,
                          "mediaDuration" : 17,
                          "scalar" : 1,
                          "animationTracks" : {

                          }
                        },
                        {
                          "id" : 106,
                          "_type" : "AMFile",
                          "src" : 1,
                          "trackNumber" : 1,
                          "attributes" : {
                            "ident" : "",
                            "sampleRate" : 44100,
                            "bitDepth" : 16,
                            "gain" : 1.0,
                            "mixToMono" : false
                          },
                            "channelNumber" : "0,1",
                          "effects" : [

                          ],
                          "start" : 2213,
                          "duration" : 67,
                          "mediaStart" : 7193,
                          "mediaDuration" : 67,
                          "scalar" : 1,
                          "animationTracks" : {

                          }
                        },
                        {
                          "id" : 107,
                          "_type" : "AMFile",
                          "src" : 1,
                          "trackNumber" : 1,
                          "attributes" : {
                            "ident" : "",
                            "sampleRate" : 44100,
                            "bitDepth" : 16,
                            "gain" : 1.0,
                            "mixToMono" : false
                          },
                            "channelNumber" : "0,1",
                          "effects" : [

                          ],
                          "start" : 2280,
                          "duration" : 457,
                          "mediaStart" : 7329,
                          "mediaDuration" : 457,
                          "scalar" : 1,
                          "animationTracks" : {

                          }
                        },
                        {
                          "id" : 108,
                          "_type" : "AMFile",
                          "src" : 1,
                          "trackNumber" : 1,
                          "attributes" : {
                            "ident" : "",
                            "sampleRate" : 44100,
                            "bitDepth" : 16,
                            "gain" : 1.0,
                            "mixToMono" : false
                          },
                            "channelNumber" : "0,1",
                          "effects" : [

                          ],
                          "start" : 2737,
                          "duration" : 131,
                          "mediaStart" : 7958,
                          "mediaDuration" : 131,
                          "scalar" : 1,
                          "animationTracks" : {

                          }
                        },
                        {
                          "id" : 109,
                          "_type" : "AMFile",
                          "src" : 1,
                          "trackNumber" : 1,
                          "attributes" : {
                            "ident" : "",
                            "sampleRate" : 44100,
                            "bitDepth" : 16,
                            "gain" : 1.0,
                            "mixToMono" : false
                          },
                            "channelNumber" : "0,1",
                          "effects" : [

                          ],
                          "start" : 2868,
                          "duration" : 213,
                          "mediaStart" : 8103,
                          "mediaDuration" : 213,
                          "scalar" : 1,
                          "animationTracks" : {

                          }
                        },
                        {
                          "id" : 110,
                          "_type" : "AMFile",
                          "src" : 1,
                          "trackNumber" : 1,
                          "attributes" : {
                            "ident" : "",
                            "sampleRate" : 44100,
                            "bitDepth" : 16,
                            "gain" : 1.0,
                            "mixToMono" : false
                          },
                            "channelNumber" : "0,1",
                          "effects" : [

                          ],
                          "start" : 3081,
                          "duration" : 26,
                          "mediaStart" : 8863,
                          "mediaDuration" : 26,
                          "scalar" : 1,
                          "animationTracks" : {

                          }
                        },
                        {
                          "id" : 111,
                          "_type" : "AMFile",
                          "src" : 1,
                          "trackNumber" : 1,
                          "attributes" : {
                            "ident" : "",
                            "sampleRate" : 44100,
                            "bitDepth" : 16,
                            "gain" : 1.0,
                            "mixToMono" : false
                          },
                            "channelNumber" : "0,1",
                          "effects" : [

                          ],
                          "start" : 3107,
                          "duration" : 282,
                          "mediaStart" : 8915,
                          "mediaDuration" : 282,
                          "scalar" : 1,
                          "animationTracks" : {

                          }
                        },
                        {
                          "id" : 112,
                          "_type" : "AMFile",
                          "src" : 1,
                          "trackNumber" : 1,
                          "attributes" : {
                            "ident" : "",
                            "sampleRate" : 44100,
                            "bitDepth" : 16,
                            "gain" : 1.0,
                            "mixToMono" : false
                          },
                            "channelNumber" : "0,1",
                          "effects" : [

                          ],
                          "start" : 3389,
                          "duration" : 150,
                          "mediaStart" : 9217,
                          "mediaDuration" : 150,
                          "scalar" : 1,
                          "animationTracks" : {

                          }
                        },
                        {
                          "id" : 113,
                          "_type" : "AMFile",
                          "src" : 1,
                          "trackNumber" : 1,
                          "attributes" : {
                            "ident" : "",
                            "sampleRate" : 44100,
                            "bitDepth" : 16,
                            "gain" : 1.0,
                            "mixToMono" : false
                          },
                            "channelNumber" : "0,1",
                          "effects" : [

                          ],
                          "start" : 3539,
                          "duration" : 21,
                          "mediaStart" : 9388,
                          "mediaDuration" : 21,
                          "scalar" : 1,
                          "animationTracks" : {

                          }
                        },
                        {
                          "id" : 114,
                          "_type" : "AMFile",
                          "src" : 1,
                          "trackNumber" : 1,
                          "attributes" : {
                            "ident" : "",
                            "sampleRate" : 44100,
                            "bitDepth" : 16,
                            "gain" : 1.0,
                            "mixToMono" : false
                          },
                            "channelNumber" : "0,1",
                          "effects" : [

                          ],
                          "start" : 3560,
                          "duration" : 27,
                          "mediaStart" : 9500,
                          "mediaDuration" : 27,
                          "scalar" : 1,
                          "animationTracks" : {

                          }
                        },
                        {
                          "id" : 115,
                          "_type" : "AMFile",
                          "src" : 1,
                          "trackNumber" : 1,
                          "attributes" : {
                            "ident" : "",
                            "sampleRate" : 44100,
                            "bitDepth" : 16,
                            "gain" : 1.0,
                            "mixToMono" : false
                          },
                            "channelNumber" : "0,1",
                          "effects" : [

                          ],
                          "start" : 3587,
                          "duration" : 117,
                          "mediaStart" : 9530,
                          "mediaDuration" : 117,
                          "scalar" : 1,
                          "animationTracks" : {

                          }
                        },
                        {
                          "id" : 116,
                          "_type" : "AMFile",
                          "src" : 1,
                          "trackNumber" : 1,
                          "attributes" : {
                            "ident" : "",
                            "sampleRate" : 44100,
                            "bitDepth" : 16,
                            "gain" : 1.0,
                            "mixToMono" : false
                          },
                            "channelNumber" : "0,1",
                          "effects" : [

                          ],
                          "start" : 3704,
                          "duration" : 53,
                          "mediaStart" : 9843,
                          "mediaDuration" : 53,
                          "scalar" : 1,
                          "animationTracks" : {

                          }
                        },
                        {
                          "id" : 117,
                          "_type" : "AMFile",
                          "src" : 1,
                          "trackNumber" : 1,
                          "attributes" : {
                            "ident" : "",
                            "sampleRate" : 44100,
                            "bitDepth" : 16,
                            "gain" : 1.0,
                            "mixToMono" : false
                          },
                            "channelNumber" : "0,1",
                          "effects" : [

                          ],
                          "start" : 3757,
                          "duration" : 35,
                          "mediaStart" : 9923,
                          "mediaDuration" : 35,
                          "scalar" : 1,
                          "animationTracks" : {

                          }
                        },
                        {
                          "id" : 118,
                          "_type" : "AMFile",
                          "src" : 1,
                          "trackNumber" : 1,
                          "attributes" : {
                            "ident" : "",
                            "sampleRate" : 44100,
                            "bitDepth" : 16,
                            "gain" : 1.0,
                            "mixToMono" : false
                          },
                            "channelNumber" : "0,1",
                          "effects" : [

                          ],
                          "start" : 3792,
                          "duration" : 1,
                          "mediaStart" : 9982,
                          "mediaDuration" : 1,
                          "scalar" : 1,
                          "animationTracks" : {

                          }
                        },
                        {
                          "id" : 119,
                          "_type" : "AMFile",
                          "src" : 1,
                          "trackNumber" : 1,
                          "attributes" : {
                            "ident" : "",
                            "sampleRate" : 44100,
                            "bitDepth" : 16,
                            "gain" : 1.0,
                            "mixToMono" : false
                          },
                            "channelNumber" : "0,1",
                          "effects" : [

                          ],
                          "start" : 3793,
                          "duration" : 2,
                          "mediaStart" : 9984,
                          "mediaDuration" : 2,
                          "scalar" : 1,
                          "animationTracks" : {

                          }
                        },
                        {
                          "id" : 120,
                          "_type" : "AMFile",
                          "src" : 1,
                          "trackNumber" : 1,
                          "attributes" : {
                            "ident" : "",
                            "sampleRate" : 44100,
                            "bitDepth" : 16,
                            "gain" : 1.0,
                            "mixToMono" : false
                          },
                            "channelNumber" : "0,1",
                          "effects" : [

                          ],
                          "start" : 3795,
                          "duration" : 2,
                          "mediaStart" : 9987,
                          "mediaDuration" : 2,
                          "scalar" : 1,
                          "animationTracks" : {

                          }
                        },
                        {
                          "id" : 121,
                          "_type" : "AMFile",
                          "src" : 1,
                          "trackNumber" : 1,
                          "attributes" : {
                            "ident" : "",
                            "sampleRate" : 44100,
                            "bitDepth" : 16,
                            "gain" : 1.0,
                            "mixToMono" : false
                          },
                            "channelNumber" : "0,1",
                          "effects" : [

                          ],
                          "start" : 3797,
                          "duration" : 2,
                          "mediaStart" : 9990,
                          "mediaDuration" : 2,
                          "scalar" : 1,
                          "animationTracks" : {

                          }
                        },
                        {
                          "id" : 122,
                          "_type" : "AMFile",
                          "src" : 1,
                          "trackNumber" : 1,
                          "attributes" : {
                            "ident" : "",
                            "sampleRate" : 44100,
                            "bitDepth" : 16,
                            "gain" : 1.0,
                            "mixToMono" : false
                          },
                            "channelNumber" : "0,1",
                          "effects" : [

                          ],
                          "start" : 3799,
                          "duration" : 257,
                          "mediaStart" : 10005,
                          "mediaDuration" : 257,
                          "scalar" : 1,
                          "animationTracks" : {

                          }
                        },
                        {
                          "id" : 123,
                          "_type" : "AMFile",
                          "src" : 1,
                          "trackNumber" : 1,
                          "attributes" : {
                            "ident" : "",
                            "sampleRate" : 44100,
                            "bitDepth" : 16,
                            "gain" : 1.0,
                            "mixToMono" : false
                          },
                            "channelNumber" : "0,1",
                          "effects" : [

                          ],
                          "start" : 4056,
                          "duration" : 1422,
                          "mediaStart" : 15039,
                          "mediaDuration" : 1422,
                          "scalar" : 1,
                          "animationTracks" : {

                          }
                        },
                        {
                          "id" : 124,
                          "_type" : "AMFile",
                          "src" : 1,
                          "trackNumber" : 1,
                          "attributes" : {
                            "ident" : "",
                            "sampleRate" : 44100,
                            "bitDepth" : 16,
                            "gain" : 1.0,
                            "mixToMono" : false
                          },
                            "channelNumber" : "0,1",
                          "effects" : [

                          ],
                          "start" : 5478,
                          "duration" : 439,
                          "mediaStart" : 17196,
                          "mediaDuration" : 439,
                          "scalar" : 1,
                          "animationTracks" : {

                          }
                        },
                        {
                          "id" : 125,
                          "_type" : "AMFile",
                          "src" : 1,
                          "trackNumber" : 1,
                          "attributes" : {
                            "ident" : "",
                            "sampleRate" : 44100,
                            "bitDepth" : 16,
                            "gain" : 1.0,
                            "mixToMono" : false
                          },
                            "channelNumber" : "0,1",
                          "effects" : [

                          ],
                          "start" : 5917,
                          "duration" : 562,
                          "mediaStart" : 18253,
                          "mediaDuration" : 562,
                          "scalar" : 1,
                          "animationTracks" : {

                          }
                        },
                        {
                          "id" : 126,
                          "_type" : "AMFile",
                          "src" : 1,
                          "trackNumber" : 1,
                          "attributes" : {
                            "ident" : "",
                            "sampleRate" : 44100,
                            "bitDepth" : 16,
                            "gain" : 1.0,
                            "mixToMono" : false
                          },
                            "channelNumber" : "0,1",
                          "effects" : [

                          ],
                          "start" : 6479,
                          "duration" : 156,
                          "mediaStart" : 18935,
                          "mediaDuration" : 156,
                          "scalar" : 1,
                          "animationTracks" : {

                          }
                        },
                        {
                          "id" : 127,
                          "_type" : "AMFile",
                          "src" : 1,
                          "trackNumber" : 1,
                          "attributes" : {
                            "ident" : "",
                            "sampleRate" : 44100,
                            "bitDepth" : 16,
                            "gain" : 1.0,
                            "mixToMono" : false
                          },
                            "channelNumber" : "0,1",
                          "effects" : [

                          ],
                          "start" : 6635,
                          "duration" : 717,
                          "mediaStart" : 19457,
                          "mediaDuration" : 717,
                          "scalar" : 1,
                          "animationTracks" : {

                          }
                        },
                        {
                          "id" : 128,
                          "_type" : "AMFile",
                          "src" : 1,
                          "trackNumber" : 1,
                          "attributes" : {
                            "ident" : "",
                            "sampleRate" : 44100,
                            "bitDepth" : 16,
                            "gain" : 1.0,
                            "mixToMono" : false
                          },
                            "channelNumber" : "0,1",
                          "effects" : [

                          ],
                          "start" : 7352,
                          "duration" : 75,
                          "mediaStart" : 20182,
                          "mediaDuration" : 75,
                          "scalar" : 1,
                          "animationTracks" : {

                          }
                        },
                        {
                          "id" : 129,
                          "_type" : "AMFile",
                          "src" : 1,
                          "trackNumber" : 1,
                          "attributes" : {
                            "ident" : "",
                            "sampleRate" : 44100,
                            "bitDepth" : 16,
                            "gain" : 1.0,
                            "mixToMono" : false
                          },
                            "channelNumber" : "0,1",
                          "effects" : [

                          ],
                          "start" : 7427,
                          "duration" : 900,
                          "mediaStart" : 20333,
                          "mediaDuration" : 900,
                          "scalar" : 1,
                          "animationTracks" : {

                          }
                        },
                        {
                          "id" : 130,
                          "_type" : "AMFile",
                          "src" : 1,
                          "trackNumber" : 1,
                          "attributes" : {
                            "ident" : "",
                            "sampleRate" : 44100,
                            "bitDepth" : 16,
                            "gain" : 1.0,
                            "mixToMono" : false
                          },
                            "channelNumber" : "0,1",
                          "effects" : [

                          ],
                          "start" : 8327,
                          "duration" : 144,
                          "mediaStart" : 21289,
                          "mediaDuration" : 144,
                          "scalar" : 1,
                          "animationTracks" : {

                          }
                        },
                        {
                          "id" : 131,
                          "_type" : "AMFile",
                          "src" : 1,
                          "trackNumber" : 1,
                          "attributes" : {
                            "ident" : "",
                            "sampleRate" : 44100,
                            "bitDepth" : 16,
                            "gain" : 1.0,
                            "mixToMono" : false
                          },
                            "channelNumber" : "0,1",
                          "effects" : [

                          ],
                          "start" : 8471,
                          "duration" : 155,
                          "mediaStart" : 21552,
                          "mediaDuration" : 155,
                          "scalar" : 1,
                          "animationTracks" : {

                          }
                        },
                        {
                          "id" : 132,
                          "_type" : "AMFile",
                          "src" : 1,
                          "trackNumber" : 1,
                          "attributes" : {
                            "ident" : "",
                            "sampleRate" : 44100,
                            "bitDepth" : 16,
                            "gain" : 1.0,
                            "mixToMono" : false
                          },
                            "channelNumber" : "0,1",
                          "effects" : [

                          ],
                          "start" : 8626,
                          "duration" : 43,
                          "mediaStart" : 21722,
                          "mediaDuration" : 43,
                          "scalar" : 1,
                          "animationTracks" : {

                          }
                        },
                        {
                          "id" : 133,
                          "_type" : "AMFile",
                          "src" : 1,
                          "trackNumber" : 1,
                          "attributes" : {
                            "ident" : "",
                            "sampleRate" : 44100,
                            "bitDepth" : 16,
                            "gain" : 1.0,
                            "mixToMono" : false
                          },
                            "channelNumber" : "0,1",
                          "effects" : [

                          ],
                          "start" : 8669,
                          "duration" : 185,
                          "mediaStart" : 21775,
                          "mediaDuration" : 185,
                          "scalar" : 1,
                          "animationTracks" : {

                          }
                        },
                        {
                          "id" : 134,
                          "_type" : "AMFile",
                          "src" : 1,
                          "trackNumber" : 1,
                          "attributes" : {
                            "ident" : "",
                            "sampleRate" : 44100,
                            "bitDepth" : 16,
                            "gain" : 1.0,
                            "mixToMono" : false
                          },
                            "channelNumber" : "0,1",
                          "effects" : [

                          ],
                          "start" : 8854,
                          "duration" : 1386,
                          "mediaStart" : 22037,
                          "mediaDuration" : 1386,
                          "scalar" : 1,
                          "animationTracks" : {

                          }
                        },
                        {
                          "id" : 135,
                          "_type" : "AMFile",
                          "src" : 1,
                          "trackNumber" : 1,
                          "attributes" : {
                            "ident" : "",
                            "sampleRate" : 44100,
                            "bitDepth" : 16,
                            "gain" : 1.0,
                            "mixToMono" : false
                          },
                            "channelNumber" : "0,1",
                          "effects" : [

                          ],
                          "start" : 10240,
                          "duration" : 120,
                          "mediaStart" : 23484,
                          "mediaDuration" : 120,
                          "scalar" : 1,
                          "animationTracks" : {

                          }
                        },
                        {
                          "id" : 136,
                          "_type" : "AMFile",
                          "src" : 1,
                          "trackNumber" : 1,
                          "attributes" : {
                            "ident" : "",
                            "sampleRate" : 44100,
                            "bitDepth" : 16,
                            "gain" : 1.0,
                            "mixToMono" : false
                          },
                            "channelNumber" : "0,1",
                          "effects" : [

                          ],
                          "start" : 10360,
                          "duration" : 336,
                          "mediaStart" : 23668,
                          "mediaDuration" : 336,
                          "scalar" : 1,
                          "animationTracks" : {

                          }
                        },
                        {
                          "id" : 137,
                          "_type" : "AMFile",
                          "src" : 1,
                          "trackNumber" : 1,
                          "attributes" : {
                            "ident" : "",
                            "sampleRate" : 44100,
                            "bitDepth" : 16,
                            "gain" : 1.0,
                            "mixToMono" : false
                          },
                            "channelNumber" : "0,1",
                          "effects" : [

                          ],
                          "start" : 10696,
                          "duration" : 331,
                          "mediaStart" : 24697,
                          "mediaDuration" : 331,
                          "scalar" : 1,
                          "animationTracks" : {

                          }
                        },
                        {
                          "id" : 138,
                          "_type" : "AMFile",
                          "src" : 1,
                          "trackNumber" : 1,
                          "attributes" : {
                            "ident" : "",
                            "sampleRate" : 44100,
                            "bitDepth" : 16,
                            "gain" : 1.0,
                            "mixToMono" : false
                          },
                            "channelNumber" : "0,1",
                          "effects" : [

                          ],
                          "start" : 11027,
                          "duration" : 656,
                          "mediaStart" : 25140,
                          "mediaDuration" : 656,
                          "scalar" : 1,
                          "animationTracks" : {

                          }
                        },
                        {
                          "id" : 139,
                          "_type" : "AMFile",
                          "src" : 1,
                          "trackNumber" : 1,
                          "attributes" : {
                            "ident" : "",
                            "sampleRate" : 44100,
                            "bitDepth" : 16,
                            "gain" : 1.0,
                            "mixToMono" : false
                          },
                            "channelNumber" : "0,1",
                          "effects" : [

                          ],
                          "start" : 11683,
                          "duration" : 390,
                          "mediaStart" : 25807,
                          "mediaDuration" : 390,
                          "scalar" : 1,
                          "animationTracks" : {

                          }
                        },
                        {
                          "id" : 140,
                          "_type" : "AMFile",
                          "src" : 1,
                          "trackNumber" : 1,
                          "attributes" : {
                            "ident" : "",
                            "sampleRate" : 44100,
                            "bitDepth" : 16,
                            "gain" : 1.0,
                            "mixToMono" : false
                          },
                            "channelNumber" : "0,1",
                          "effects" : [

                          ],
                          "start" : 12073,
                          "duration" : 368,
                          "mediaStart" : 26206,
                          "mediaDuration" : 368,
                          "scalar" : 1,
                          "animationTracks" : {

                          }
                        },
                        {
                          "id" : 141,
                          "_type" : "AMFile",
                          "src" : 1,
                          "trackNumber" : 1,
                          "attributes" : {
                            "ident" : "",
                            "sampleRate" : 44100,
                            "bitDepth" : 16,
                            "gain" : 1.0,
                            "mixToMono" : false
                          },
                            "channelNumber" : "0,1",
                          "effects" : [

                          ],
                          "start" : 12441,
                          "duration" : 216,
                          "mediaStart" : 26639,
                          "mediaDuration" : 216,
                          "scalar" : 1,
                          "animationTracks" : {

                          }
                        },
                        {
                          "id" : 142,
                          "_type" : "AMFile",
                          "src" : 1,
                          "trackNumber" : 1,
                          "attributes" : {
                            "ident" : "",
                            "sampleRate" : 44100,
                            "bitDepth" : 16,
                            "gain" : 1.0,
                            "mixToMono" : false
                          },
                            "channelNumber" : "0,1",
                          "effects" : [

                          ],
                          "start" : 12657,
                          "duration" : 643,
                          "mediaStart" : 26970,
                          "mediaDuration" : 643,
                          "scalar" : 1,
                          "animationTracks" : {

                          }
                        },
                        {
                          "id" : 143,
                          "_type" : "AMFile",
                          "src" : 1,
                          "trackNumber" : 1,
                          "attributes" : {
                            "ident" : "",
                            "sampleRate" : 44100,
                            "bitDepth" : 16,
                            "gain" : 1.0,
                            "mixToMono" : false
                          },
                            "channelNumber" : "0,1",
                          "effects" : [

                          ],
                          "start" : 13300,
                          "duration" : 680,
                          "mediaStart" : 27753,
                          "mediaDuration" : 680,
                          "scalar" : 1,
                          "animationTracks" : {

                          }
                        },
                        {
                          "id" : 144,
                          "_type" : "AMFile",
                          "src" : 1,
                          "trackNumber" : 1,
                          "attributes" : {
                            "ident" : "",
                            "sampleRate" : 44100,
                            "bitDepth" : 16,
                            "gain" : 1.0,
                            "mixToMono" : false
                          },
                            "channelNumber" : "0,1",
                          "effects" : [

                          ],
                          "start" : 13980,
                          "duration" : 212,
                          "mediaStart" : 29298,
                          "mediaDuration" : 212,
                          "scalar" : 1,
                          "animationTracks" : {

                          }
                        },
                        {
                          "id" : 145,
                          "_type" : "AMFile",
                          "src" : 1,
                          "trackNumber" : 1,
                          "attributes" : {
                            "ident" : "",
                            "sampleRate" : 44100,
                            "bitDepth" : 16,
                            "gain" : 1.0,
                            "mixToMono" : false
                          },
                            "channelNumber" : "0,1",
                          "effects" : [

                          ],
                          "start" : 14192,
                          "duration" : 222,
                          "mediaStart" : 29788,
                          "mediaDuration" : 222,
                          "scalar" : 1,
                          "animationTracks" : {

                          }
                        },
                        {
                          "id" : 146,
                          "_type" : "AMFile",
                          "src" : 1,
                          "trackNumber" : 1,
                          "attributes" : {
                            "ident" : "",
                            "sampleRate" : 44100,
                            "bitDepth" : 16,
                            "gain" : 1.0,
                            "mixToMono" : false
                          },
                            "channelNumber" : "0,1",
                          "effects" : [

                          ],
                          "start" : 14414,
                          "duration" : 136,
                          "mediaStart" : 30098,
                          "mediaDuration" : 136,
                          "scalar" : 1,
                          "animationTracks" : {

                          }
                        },
                        {
                          "id" : 147,
                          "_type" : "AMFile",
                          "src" : 1,
                          "trackNumber" : 1,
                          "attributes" : {
                            "ident" : "",
                            "sampleRate" : 44100,
                            "bitDepth" : 16,
                            "gain" : 1.0,
                            "mixToMono" : false
                          },
                            "channelNumber" : "0,1",
                          "effects" : [

                          ],
                          "start" : 14550,
                          "duration" : 538,
                          "mediaStart" : 30311,
                          "mediaDuration" : 538,
                          "scalar" : 1,
                          "animationTracks" : {

                          }
                        },
                        {
                          "id" : 148,
                          "_type" : "AMFile",
                          "src" : 1,
                          "trackNumber" : 1,
                          "attributes" : {
                            "ident" : "",
                            "sampleRate" : 44100,
                            "bitDepth" : 16,
                            "gain" : 1.0,
                            "mixToMono" : false
                          },
                            "channelNumber" : "0,1",
                          "effects" : [

                          ],
                          "start" : 15088,
                          "duration" : 187,
                          "mediaStart" : 30855,
                          "mediaDuration" : 187,
                          "scalar" : 1,
                          "animationTracks" : {

                          }
                        },
                        {
                          "id" : 149,
                          "_type" : "AMFile",
                          "src" : 1,
                          "trackNumber" : 1,
                          "attributes" : {
                            "ident" : "",
                            "sampleRate" : 44100,
                            "bitDepth" : 16,
                            "gain" : 1.0,
                            "mixToMono" : false
                          },
                            "channelNumber" : "0,1",
                          "effects" : [

                          ],
                          "start" : 15275,
                          "duration" : 280,
                          "mediaStart" : 31192,
                          "mediaDuration" : 280,
                          "scalar" : 1,
                          "animationTracks" : {

                          }
                        },
                        {
                          "id" : 150,
                          "_type" : "AMFile",
                          "src" : 1,
                          "trackNumber" : 1,
                          "attributes" : {
                            "ident" : "",
                            "sampleRate" : 44100,
                            "bitDepth" : 16,
                            "gain" : 1.0,
                            "mixToMono" : false
                          },
                            "channelNumber" : "0,1",
                          "effects" : [

                          ],
                          "start" : 15555,
                          "duration" : 680,
                          "mediaStart" : 31562,
                          "mediaDuration" : 680,
                          "scalar" : 1,
                          "animationTracks" : {

                          }
                        },
                        {
                          "id" : 151,
                          "_type" : "AMFile",
                          "src" : 1,
                          "trackNumber" : 1,
                          "attributes" : {
                            "ident" : "",
                            "sampleRate" : 44100,
                            "bitDepth" : 16,
                            "gain" : 1.0,
                            "mixToMono" : false
                          },
                            "channelNumber" : "0,1",
                          "effects" : [

                          ],
                          "start" : 16235,
                          "duration" : 641,
                          "mediaStart" : 32551,
                          "mediaDuration" : 641,
                          "scalar" : 1,
                          "animationTracks" : {

                          }
                        },
                        {
                          "id" : 152,
                          "_type" : "AMFile",
                          "src" : 1,
                          "trackNumber" : 1,
                          "attributes" : {
                            "ident" : "",
                            "sampleRate" : 44100,
                            "bitDepth" : 16,
                            "gain" : 1.0,
                            "mixToMono" : false
                          },
                            "channelNumber" : "0,1",
                          "effects" : [

                          ],
                          "start" : 16876,
                          "duration" : 709,
                          "mediaStart" : 33196,
                          "mediaDuration" : 709,
                          "scalar" : 1,
                          "animationTracks" : {

                          }
                        },
                        {
                          "id" : 153,
                          "_type" : "AMFile",
                          "src" : 1,
                          "trackNumber" : 1,
                          "attributes" : {
                            "ident" : "",
                            "sampleRate" : 44100,
                            "bitDepth" : 16,
                            "gain" : 1.0,
                            "mixToMono" : false
                          },
                            "channelNumber" : "0,1",
                          "effects" : [

                          ],
                          "start" : 17585,
                          "duration" : 477,
                          "mediaStart" : 34239,
                          "mediaDuration" : 477,
                          "scalar" : 1,
                          "animationTracks" : {

                          }
                        },
                        {
                          "id" : 154,
                          "_type" : "AMFile",
                          "src" : 1,
                          "trackNumber" : 1,
                          "attributes" : {
                            "ident" : "",
                            "sampleRate" : 44100,
                            "bitDepth" : 16,
                            "gain" : 1.0,
                            "mixToMono" : false
                          },
                            "channelNumber" : "0,1",
                          "effects" : [

                          ],
                          "start" : 18062,
                          "duration" : 648,
                          "mediaStart" : 34869,
                          "mediaDuration" : 648,
                          "scalar" : 1,
                          "animationTracks" : {

                          }
                        },
                        {
                          "id" : 155,
                          "_type" : "AMFile",
                          "src" : 1,
                          "trackNumber" : 1,
                          "attributes" : {
                            "ident" : "",
                            "sampleRate" : 44100,
                            "bitDepth" : 16,
                            "gain" : 1.0,
                            "mixToMono" : false
                          },
                            "channelNumber" : "0,1",
                          "effects" : [

                          ],
                          "start" : 18710,
                          "duration" : 225,
                          "mediaStart" : 35534,
                          "mediaDuration" : 225,
                          "scalar" : 1,
                          "animationTracks" : {

                          }
                        },
                        {
                          "id" : 156,
                          "_type" : "AMFile",
                          "src" : 1,
                          "trackNumber" : 1,
                          "attributes" : {
                            "ident" : "",
                            "sampleRate" : 44100,
                            "bitDepth" : 16,
                            "gain" : 1.0,
                            "mixToMono" : false
                          },
                            "channelNumber" : "0,1",
                          "effects" : [

                          ],
                          "start" : 18935,
                          "duration" : 23,
                          "mediaStart" : 35773,
                          "mediaDuration" : 23,
                          "scalar" : 1,
                          "animationTracks" : {

                          }
                        },
                        {
                          "id" : 157,
                          "_type" : "AMFile",
                          "src" : 1,
                          "trackNumber" : 1,
                          "attributes" : {
                            "ident" : "",
                            "sampleRate" : 44100,
                            "bitDepth" : 16,
                            "gain" : 1.0,
                            "mixToMono" : false
                          },
                            "channelNumber" : "0,1",
                          "effects" : [

                          ],
                          "start" : 18958,
                          "duration" : 109,
                          "mediaStart" : 35802,
                          "mediaDuration" : 109,
                          "scalar" : 1,
                          "animationTracks" : {

                          }
                        },
                        {
                          "id" : 158,
                          "_type" : "AMFile",
                          "src" : 1,
                          "trackNumber" : 1,
                          "attributes" : {
                            "ident" : "",
                            "sampleRate" : 44100,
                            "bitDepth" : 16,
                            "gain" : 1.0,
                            "mixToMono" : false
                          },
                            "channelNumber" : "0,1",
                          "effects" : [

                          ],
                          "start" : 19067,
                          "duration" : 227,
                          "mediaStart" : 36794,
                          "mediaDuration" : 227,
                          "scalar" : 1,
                          "animationTracks" : {

                          }
                        },
                        {
                          "id" : 159,
                          "_type" : "AMFile",
                          "src" : 1,
                          "trackNumber" : 1,
                          "attributes" : {
                            "ident" : "",
                            "sampleRate" : 44100,
                            "bitDepth" : 16,
                            "gain" : 1.0,
                            "mixToMono" : false
                          },
                            "channelNumber" : "0,1",
                          "effects" : [

                          ],
                          "start" : 19294,
                          "duration" : 93,
                          "mediaStart" : 37158,
                          "mediaDuration" : 93,
                          "scalar" : 1,
                          "animationTracks" : {

                          }
                        },
                        {
                          "id" : 160,
                          "_type" : "AMFile",
                          "src" : 1,
                          "trackNumber" : 1,
                          "attributes" : {
                            "ident" : "",
                            "sampleRate" : 44100,
                            "bitDepth" : 16,
                            "gain" : 1.0,
                            "mixToMono" : false
                          },
                            "channelNumber" : "0,1",
                          "effects" : [

                          ],
                          "start" : 19387,
                          "duration" : 122,
                          "mediaStart" : 37262,
                          "mediaDuration" : 122,
                          "scalar" : 1,
                          "animationTracks" : {

                          }
                        },
                        {
                          "id" : 161,
                          "_type" : "AMFile",
                          "src" : 1,
                          "trackNumber" : 1,
                          "attributes" : {
                            "ident" : "",
                            "sampleRate" : 44100,
                            "bitDepth" : 16,
                            "gain" : 1.0,
                            "mixToMono" : false
                          },
                            "channelNumber" : "0,1",
                          "effects" : [

                          ],
                          "start" : 19509,
                          "duration" : 109,
                          "mediaStart" : 37412,
                          "mediaDuration" : 109,
                          "scalar" : 1,
                          "animationTracks" : {

                          }
                        },
                        {
                          "id" : 162,
                          "_type" : "AMFile",
                          "src" : 1,
                          "trackNumber" : 1,
                          "attributes" : {
                            "ident" : "",
                            "sampleRate" : 44100,
                            "bitDepth" : 16,
                            "gain" : 1.0,
                            "mixToMono" : false
                          },
                            "channelNumber" : "0,1",
                          "effects" : [

                          ],
                          "start" : 19618,
                          "duration" : 216,
                          "mediaStart" : 37550,
                          "mediaDuration" : 216,
                          "scalar" : 1,
                          "animationTracks" : {

                          }
                        },
                        {
                          "id" : 163,
                          "_type" : "AMFile",
                          "src" : 1,
                          "trackNumber" : 1,
                          "attributes" : {
                            "ident" : "",
                            "sampleRate" : 44100,
                            "bitDepth" : 16,
                            "gain" : 1.0,
                            "mixToMono" : false
                          },
                            "channelNumber" : "0,1",
                          "effects" : [

                          ],
                          "start" : 19834,
                          "duration" : 774,
                          "mediaStart" : 37836,
                          "mediaDuration" : 774,
                          "scalar" : 1,
                          "animationTracks" : {

                          }
                        },
                        {
                          "id" : 164,
                          "_type" : "AMFile",
                          "src" : 1,
                          "trackNumber" : 1,
                          "attributes" : {
                            "ident" : "",
                            "sampleRate" : 44100,
                            "bitDepth" : 16,
                            "gain" : 1.0,
                            "mixToMono" : false
                          },
                            "channelNumber" : "0,1",
                          "effects" : [

                          ],
                          "start" : 20608,
                          "duration" : 164,
                          "mediaStart" : 38689,
                          "mediaDuration" : 164,
                          "scalar" : 1,
                          "animationTracks" : {

                          }
                        },
                        {
                          "id" : 165,
                          "_type" : "AMFile",
                          "src" : 1,
                          "trackNumber" : 1,
                          "attributes" : {
                            "ident" : "",
                            "sampleRate" : 44100,
                            "bitDepth" : 16,
                            "gain" : 1.0,
                            "mixToMono" : false
                          },
                            "channelNumber" : "0,1",
                          "effects" : [

                          ],
                          "start" : 20772,
                          "duration" : 580,
                          "mediaStart" : 38862,
                          "mediaDuration" : 580,
                          "scalar" : 1,
                          "animationTracks" : {

                          }
                        },
                        {
                          "id" : 166,
                          "_type" : "AMFile",
                          "src" : 1,
                          "trackNumber" : 1,
                          "attributes" : {
                            "ident" : "",
                            "sampleRate" : 44100,
                            "bitDepth" : 16,
                            "gain" : 1.0,
                            "mixToMono" : false
                          },
                            "channelNumber" : "0,1",
                          "effects" : [

                          ],
                          "start" : 21352,
                          "duration" : 324,
                          "mediaStart" : 39513,
                          "mediaDuration" : 324,
                          "scalar" : 1,
                          "animationTracks" : {

                          }
                        },
                        {
                          "id" : 167,
                          "_type" : "AMFile",
                          "src" : 1,
                          "trackNumber" : 1,
                          "attributes" : {
                            "ident" : "",
                            "sampleRate" : 44100,
                            "bitDepth" : 16,
                            "gain" : 1.0,
                            "mixToMono" : false
                          },
                            "channelNumber" : "0,1",
                          "effects" : [

                          ],
                          "start" : 21676,
                          "duration" : 710,
                          "mediaStart" : 39996,
                          "mediaDuration" : 710,
                          "scalar" : 1,
                          "animationTracks" : {

                          }
                        },
                        {
                          "id" : 168,
                          "_type" : "AMFile",
                          "src" : 1,
                          "trackNumber" : 1,
                          "attributes" : {
                            "ident" : "",
                            "sampleRate" : 44100,
                            "bitDepth" : 16,
                            "gain" : 1.0,
                            "mixToMono" : false
                          },
                            "channelNumber" : "0,1",
                          "effects" : [

                          ],
                          "start" : 22386,
                          "duration" : 81,
                          "mediaStart" : 40869,
                          "mediaDuration" : 81,
                          "scalar" : 1,
                          "animationTracks" : {

                          }
                        },
                        {
                          "id" : 169,
                          "_type" : "AMFile",
                          "src" : 1,
                          "trackNumber" : 1,
                          "attributes" : {
                            "ident" : "",
                            "sampleRate" : 44100,
                            "bitDepth" : 16,
                            "gain" : 1.0,
                            "mixToMono" : false
                          },
                            "channelNumber" : "0,1",
                          "effects" : [

                          ],
                          "start" : 22467,
                          "duration" : 260,
                          "mediaStart" : 41135,
                          "mediaDuration" : 260,
                          "scalar" : 1,
                          "animationTracks" : {

                          }
                        },
                        {
                          "id" : 170,
                          "_type" : "AMFile",
                          "src" : 1,
                          "trackNumber" : 1,
                          "attributes" : {
                            "ident" : "",
                            "sampleRate" : 44100,
                            "bitDepth" : 16,
                            "gain" : 1.0,
                            "mixToMono" : false
                          },
                            "channelNumber" : "0,1",
                          "effects" : [

                          ],
                          "start" : 22727,
                          "duration" : 135,
                          "mediaStart" : 42089,
                          "mediaDuration" : 135,
                          "scalar" : 1,
                          "animationTracks" : {

                          }
                        },
                        {
                          "id" : 171,
                          "_type" : "AMFile",
                          "src" : 1,
                          "trackNumber" : 1,
                          "attributes" : {
                            "ident" : "",
                            "sampleRate" : 44100,
                            "bitDepth" : 16,
                            "gain" : 1.0,
                            "mixToMono" : false
                          },
                            "channelNumber" : "0,1",
                          "effects" : [

                          ],
                          "start" : 22862,
                          "duration" : 119,
                          "mediaStart" : 42326,
                          "mediaDuration" : 119,
                          "scalar" : 1,
                          "animationTracks" : {

                          }
                        },
                        {
                          "id" : 172,
                          "_type" : "AMFile",
                          "src" : 1,
                          "trackNumber" : 1,
                          "attributes" : {
                            "ident" : "",
                            "sampleRate" : 44100,
                            "bitDepth" : 16,
                            "gain" : 1.0,
                            "mixToMono" : false
                          },
                            "channelNumber" : "0,1",
                          "effects" : [

                          ],
                          "start" : 22981,
                          "duration" : 142,
                          "mediaStart" : 42531,
                          "mediaDuration" : 142,
                          "scalar" : 1,
                          "animationTracks" : {

                          }
                        },
                        {
                          "id" : 173,
                          "_type" : "AMFile",
                          "src" : 1,
                          "trackNumber" : 1,
                          "attributes" : {
                            "ident" : "",
                            "sampleRate" : 44100,
                            "bitDepth" : 16,
                            "gain" : 1.0,
                            "mixToMono" : false
                          },
                            "channelNumber" : "0,1",
                          "effects" : [

                          ],
                          "start" : 23123,
                          "duration" : 284,
                          "mediaStart" : 42864,
                          "mediaDuration" : 284,
                          "scalar" : 1,
                          "animationTracks" : {

                          }
                        },
                        {
                          "id" : 174,
                          "_type" : "AMFile",
                          "src" : 1,
                          "trackNumber" : 1,
                          "attributes" : {
                            "ident" : "",
                            "sampleRate" : 44100,
                            "bitDepth" : 16,
                            "gain" : 1.0,
                            "mixToMono" : false
                          },
                            "channelNumber" : "0,1",
                          "effects" : [

                          ],
                          "start" : 23407,
                          "duration" : 236,
                          "mediaStart" : 43152,
                          "mediaDuration" : 236,
                          "scalar" : 1,
                          "animationTracks" : {

                          }
                        },
                        {
                          "id" : 175,
                          "_type" : "AMFile",
                          "src" : 1,
                          "trackNumber" : 1,
                          "attributes" : {
                            "ident" : "",
                            "sampleRate" : 44100,
                            "bitDepth" : 16,
                            "gain" : 1.0,
                            "mixToMono" : false
                          },
                            "channelNumber" : "0,1",
                          "effects" : [

                          ],
                          "start" : 23643,
                          "duration" : 65,
                          "mediaStart" : 44173,
                          "mediaDuration" : 65,
                          "scalar" : 1,
                          "animationTracks" : {

                          }
                        },
                        {
                          "id" : 176,
                          "_type" : "AMFile",
                          "src" : 1,
                          "trackNumber" : 1,
                          "attributes" : {
                            "ident" : "",
                            "sampleRate" : 44100,
                            "bitDepth" : 16,
                            "gain" : 1.0,
                            "mixToMono" : false
                          },
                            "channelNumber" : "0,1",
                          "effects" : [

                          ],
                          "start" : 23708,
                          "duration" : 13,
                          "mediaStart" : 44248,
                          "mediaDuration" : 13,
                          "scalar" : 1,
                          "animationTracks" : {

                          }
                        },
                        {
                          "id" : 177,
                          "_type" : "AMFile",
                          "src" : 1,
                          "trackNumber" : 1,
                          "attributes" : {
                            "ident" : "",
                            "sampleRate" : 44100,
                            "bitDepth" : 16,
                            "gain" : 1.0,
                            "mixToMono" : false
                          },
                            "channelNumber" : "0,1",
                          "effects" : [

                          ],
                          "start" : 23721,
                          "duration" : 12,
                          "mediaStart" : 44272,
                          "mediaDuration" : 12,
                          "scalar" : 1,
                          "animationTracks" : {

                          }
                        },
                        {
                          "id" : 178,
                          "_type" : "AMFile",
                          "src" : 1,
                          "trackNumber" : 1,
                          "attributes" : {
                            "ident" : "",
                            "sampleRate" : 44100,
                            "bitDepth" : 16,
                            "gain" : 1.0,
                            "mixToMono" : false
                          },
                            "channelNumber" : "0,1",
                          "effects" : [

                          ],
                          "start" : 23733,
                          "duration" : 45,
                          "mediaStart" : 44290,
                          "mediaDuration" : 45,
                          "scalar" : 1,
                          "animationTracks" : {

                          }
                        },
                        {
                          "id" : 179,
                          "_type" : "AMFile",
                          "src" : 1,
                          "trackNumber" : 1,
                          "attributes" : {
                            "ident" : "",
                            "sampleRate" : 44100,
                            "bitDepth" : 16,
                            "gain" : 1.0,
                            "mixToMono" : false
                          },
                            "channelNumber" : "0,1",
                          "effects" : [

                          ],
                          "start" : 23778,
                          "duration" : 225,
                          "mediaStart" : 44372,
                          "mediaDuration" : 225,
                          "scalar" : 1,
                          "animationTracks" : {

                          }
                        },
                        {
                          "id" : 180,
                          "_type" : "AMFile",
                          "src" : 1,
                          "trackNumber" : 1,
                          "attributes" : {
                            "ident" : "",
                            "sampleRate" : 44100,
                            "bitDepth" : 16,
                            "gain" : 1.0,
                            "mixToMono" : false
                          },
                            "channelNumber" : "0,1",
                          "effects" : [

                          ],
                          "start" : 24003,
                          "duration" : 226,
                          "mediaStart" : 44731,
                          "mediaDuration" : 226,
                          "scalar" : 1,
                          "animationTracks" : {

                          }
                        },
                        {
                          "id" : 181,
                          "_type" : "AMFile",
                          "src" : 1,
                          "trackNumber" : 1,
                          "attributes" : {
                            "ident" : "",
                            "sampleRate" : 44100,
                            "bitDepth" : 16,
                            "gain" : 1.0,
                            "mixToMono" : false
                          },
                            "channelNumber" : "0,1",
                          "effects" : [

                          ],
                          "start" : 24229,
                          "duration" : 1338,
                          "mediaStart" : 45683,
                          "mediaDuration" : 1338,
                          "scalar" : 1,
                          "animationTracks" : {

                          }
                        },
                        {
                          "id" : 182,
                          "_type" : "AMFile",
                          "src" : 1,
                          "trackNumber" : 1,
                          "attributes" : {
                            "ident" : "",
                            "sampleRate" : 44100,
                            "bitDepth" : 16,
                            "gain" : 1.0,
                            "mixToMono" : false
                          },
                            "channelNumber" : "0,1",
                          "effects" : [

                          ],
                          "start" : 25567,
                          "duration" : 403,
                          "mediaStart" : 47219,
                          "mediaDuration" : 403,
                          "scalar" : 1,
                          "animationTracks" : {

                          }
                        },
                        {
                          "id" : 183,
                          "_type" : "AMFile",
                          "src" : 1,
                          "trackNumber" : 1,
                          "attributes" : {
                            "ident" : "",
                            "sampleRate" : 44100,
                            "bitDepth" : 16,
                            "gain" : 1.0,
                            "mixToMono" : false
                          },
                            "channelNumber" : "0,1",
                          "effects" : [

                          ],
                          "start" : 25970,
                          "duration" : 102,
                          "mediaStart" : 48351,
                          "mediaDuration" : 102,
                          "scalar" : 1,
                          "animationTracks" : {

                          }
                        },
                        {
                          "id" : 184,
                          "_type" : "AMFile",
                          "src" : 1,
                          "trackNumber" : 1,
                          "attributes" : {
                            "ident" : "",
                            "sampleRate" : 44100,
                            "bitDepth" : 16,
                            "gain" : 1.0,
                            "mixToMono" : false
                          },
                            "channelNumber" : "0,1",
                          "effects" : [

                          ],
                          "start" : 26072,
                          "duration" : 185,
                          "mediaStart" : 48531,
                          "mediaDuration" : 185,
                          "scalar" : 1,
                          "animationTracks" : {

                          }
                        },
                        {
                          "id" : 185,
                          "_type" : "AMFile",
                          "src" : 1,
                          "trackNumber" : 1,
                          "attributes" : {
                            "ident" : "",
                            "sampleRate" : 44100,
                            "bitDepth" : 16,
                            "gain" : 1.0,
                            "mixToMono" : false
                          },
                            "channelNumber" : "0,1",
                          "effects" : [

                          ],
                          "start" : 26257,
                          "duration" : 109,
                          "mediaStart" : 48896,
                          "mediaDuration" : 109,
                          "scalar" : 1,
                          "animationTracks" : {

                          }
                        },
                        {
                          "id" : 186,
                          "_type" : "AMFile",
                          "src" : 1,
                          "trackNumber" : 1,
                          "attributes" : {
                            "ident" : "",
                            "sampleRate" : 44100,
                            "bitDepth" : 16,
                            "gain" : 1.0,
                            "mixToMono" : false
                          },
                            "channelNumber" : "0,1",
                          "effects" : [

                          ],
                          "start" : 26366,
                          "duration" : 813,
                          "mediaStart" : 49255,
                          "mediaDuration" : 813,
                          "scalar" : 1,
                          "animationTracks" : {

                          }
                        },
                        {
                          "id" : 187,
                          "_type" : "AMFile",
                          "src" : 1,
                          "trackNumber" : 1,
                          "attributes" : {
                            "ident" : "",
                            "sampleRate" : 44100,
                            "bitDepth" : 16,
                            "gain" : 1.0,
                            "mixToMono" : false
                          },
                            "channelNumber" : "0,1",
                          "effects" : [

                          ],
                          "start" : 27179,
                          "duration" : 946,
                          "mediaStart" : 50138,
                          "mediaDuration" : 946,
                          "scalar" : 1,
                          "animationTracks" : {

                          }
                        },
                        {
                          "id" : 188,
                          "_type" : "AMFile",
                          "src" : 1,
                          "trackNumber" : 1,
                          "attributes" : {
                            "ident" : "",
                            "sampleRate" : 44100,
                            "bitDepth" : 16,
                            "gain" : 1.0,
                            "mixToMono" : false
                          },
                            "channelNumber" : "0,1",
                          "effects" : [

                          ],
                          "start" : 28125,
                          "duration" : 304,
                          "mediaStart" : 51213,
                          "mediaDuration" : 304,
                          "scalar" : 1,
                          "animationTracks" : {

                          }
                        }
                    ],
                    "effects" : [

                    ],
                    "start" : 0,
                    "duration" : 27761,
                    "mediaStart" : 486,
                    "mediaDuration" : 27761,
                    "scalar" : 1,
                    "metadata" : {
                      "clipSpeedAttribute" : false,
                      "effectApplied" : "none"
                    },
                    "animationTracks" : {

                    }
                  }
                ]
              }
            ]
          }
        }
      ]
    },
    "trackAttributes" : [
      {
        "ident" : "",
        "audioMuted" : false,
        "videoHidden" : false,
        "metadata" : {
          "IsLocked" : "False",
          "trackHeight" : "48"
        }
      },
      {
        "ident" : "",
        "audioMuted" : false,
        "videoHidden" : false,
        "metadata" : {
          "IsLocked" : "False",
          "trackHeight" : "48"
        }
      }
    ],
    "captionAttributes" : {
      "enabled" : true,
      "fontName" : "Arial",
      "fontSize" : 32,
      "backgroundColor" : [ 0, 0, 0, 204],
      "foregroundColor" : [ 255, 255, 255, 255],
      "lang" : "en",
      "alignment" : 0,
      "defaultFontSize" : true,
      "opacity" : 0.5,
      "backgroundEnabled" : true,
      "backgroundOnlyAroundText" : true
    },
    "backgroundColor" : [ 0, 0, 0, 255],
    "metadata" : {
      "RecordingHeight" : "1440",
      "RecordingWidth" : "2560"
    }
  },
  "metadata" : {
    "ProjectDimensionsChanged" : true,
    "firstMedia" : true
  }
}
